<svg width="800" height="358" viewBox="0 0 800 358" fill="none" xmlns="http://www.w3.org/2000/svg">
<g clip-path="url(#clip0_128_1236)">
<path d="M39.9753 256.329C38.0362 254.03 35.6201 252.181 32.8947 250.909C30.1694 249.637 27.2 248.974 24.1927 248.965C12.2071 248.965 3.22299 258.576 3.22299 270.433C3.22299 284.315 14.7956 291.538 24.2632 291.538C27.224 291.493 30.1446 290.845 32.8462 289.632C35.5478 288.42 37.9737 286.668 39.9753 284.486V288.515C35.6613 292.3 30.112 294.374 24.374 294.348C21.17 294.422 17.9834 293.857 15.0008 292.684C12.0182 291.511 9.29957 289.755 7.00404 287.518C4.70852 285.281 2.88227 282.608 1.63223 279.657C0.382187 276.705 -0.266517 273.534 -0.275898 270.328C-0.285278 267.123 0.344852 263.948 1.5776 260.989C2.81034 258.03 4.62092 255.347 6.90331 253.097C9.18571 250.847 11.894 249.075 14.8697 247.884C17.8454 246.694 21.0286 246.109 24.233 246.165C30.0561 246.116 35.6774 248.297 39.9451 252.26L39.9753 256.329Z" fill="#231F20"/>
<path d="M67.1794 266.645H95.5116V246.789H98.6037V293.572H95.5116V269.446H67.1794V293.572H64.0974V246.789H67.1794V266.645Z" fill="#231F20"/>
<path d="M147.684 249.62H128.336V266.595H147.251V269.395H128.336V290.792H147.684V293.593H125.244V246.789H147.684V249.62Z" fill="#231F20"/>
<path d="M194.246 249.62H174.898V266.595H193.833V269.395H174.898V290.792H194.246V293.593H171.806V246.789H194.246V249.62Z" fill="#231F20"/>
<path d="M218.369 293.572V246.789H227.635C231.764 246.789 238.986 247.424 244.878 253.317C249.204 257.868 251.616 263.907 251.616 270.186C251.616 276.465 249.204 282.504 244.878 287.055C238.986 292.948 231.784 293.572 227.635 293.572H218.369ZM221.461 290.772H227.504C239.852 290.772 248.333 282.35 248.333 270.221C248.333 258.092 239.832 249.62 227.554 249.62H221.511L221.461 290.772Z" fill="#231F20"/>
<path d="M278.82 246.789V293.572H275.738V246.789H278.82Z" fill="#231F20"/>
<path d="M315.361 249.62V293.593H312.269V249.62H300.183V246.81H327.538V249.62H315.361Z" fill="#231F20"/>
<path d="M351.892 266.645H380.224V246.789H383.306V293.572H380.224V269.446H351.892V293.572H348.81V246.789H351.892V266.645Z" fill="#231F20"/>
<path d="M434.149 278.22H414.237L407.992 293.572H404.628L424.339 245.389L443.757 293.572H440.393L434.149 278.22ZM433.031 275.409L424.268 253.247L415.355 275.409H433.031Z" fill="#231F20"/>
<path d="M517.896 249.62H498.528V266.595H517.463V269.395H498.528V290.792H517.896V293.593H495.446V246.789H517.896V249.62Z" fill="#231F20"/>
<path d="M542.009 293.572V246.306L581.289 287.407V246.789H584.371V294.771L545.091 253.65V293.552L542.009 293.572Z" fill="#231F20"/>
<path d="M633.451 249.62H614.093V266.595H633.028V269.395H614.093V290.792H633.451V293.593H611.011V246.789H633.451V249.62Z" fill="#231F20"/>
<path d="M677.204 293.572L662.096 271.48H660.686V293.572H657.604V246.789H664.332C667.907 246.789 671.14 247.072 674.222 249.177C677.868 251.705 679.057 255.564 679.057 259.251C679.057 263.875 677.042 268.65 671.211 270.614C669.356 271.226 667.413 271.532 665.46 271.521L680.749 293.613L677.204 293.572ZM660.656 268.68H665.148C671.805 268.68 675.804 265.164 675.804 259.14C675.804 254.436 673.487 251.988 671.664 251C669.841 250.013 666.336 249.6 664.513 249.6H660.656V268.68Z" fill="#231F20"/>
<path d="M728.822 271.128H748.452C748.452 275.409 747.546 281.585 743.688 286.491C739.549 291.749 733.233 294.348 726.082 294.348C712.344 294.348 701.91 284.274 701.91 270.292C701.91 256.309 712.707 246.165 726.314 246.165C731.639 246.068 736.828 247.851 740.969 251.202C743.129 252.867 745.021 254.855 746.579 257.095L744.131 259.059C742.917 257.101 741.401 255.346 739.639 253.861C735.88 250.717 731.143 248.982 726.244 248.955C714.258 248.955 705.093 258.495 705.093 270.423C705.093 282.129 713.936 291.527 725.992 291.527C733.989 291.527 739.74 287.498 742.268 283.609C744.073 280.684 745.131 277.359 745.35 273.928H728.822V271.128Z" fill="#231F20"/>
<path d="M781.135 273.586L765.776 246.789H769.281L782.787 270.433L796.535 246.789H800.04L784.258 273.586V293.572H781.176L781.135 273.586Z" fill="#231F20"/>
<path d="M251.666 112.162C251.661 112.334 251.631 112.504 251.576 112.666C251.383 113.132 251.022 113.508 250.565 113.721C250.109 113.934 249.588 113.968 249.108 113.817C248.627 113.665 248.221 113.338 247.969 112.901C247.717 112.465 247.639 111.949 247.748 111.457L247.204 111.296C247.567 114.127 247.919 115.729 247.919 115.729L253.963 112.132C253.199 112.194 252.432 112.204 251.666 112.162V112.162Z" fill="#030202"/>
<path d="M364.653 0.453323L363.797 0.402954L364.532 0.624578L364.653 0.453323Z" fill="#030202"/>
<path d="M368.228 1.97447C369.004 2.28676 369.789 2.60912 370.565 2.98186C370.776 2.51792 371.155 2.15116 371.625 1.95546C372.096 1.75977 372.623 1.74968 373.1 1.92722C373.578 2.10477 373.971 2.45676 374.199 2.91229C374.428 3.36782 374.475 3.89303 374.332 4.38212L374.241 4.5836L375.853 5.30892C376.075 4.85439 376.461 4.50038 376.933 4.3173C377.405 4.13422 377.928 4.13549 378.399 4.32086C378.87 4.50623 379.254 4.8621 379.474 5.3177C379.695 5.7733 379.736 6.29524 379.589 6.7797C379.589 6.86029 379.509 6.94088 379.478 7.02148L381.191 7.92812C381.318 7.44348 381.621 7.02369 382.041 6.75067C382.462 6.47765 382.968 6.371 383.463 6.45154C383.957 6.53208 384.404 6.79403 384.716 7.18626C385.027 7.57849 385.182 8.07285 385.149 8.57285C385.089 9.01522 384.892 9.42759 384.585 9.75149L386.025 10.497C386.096 9.96261 386.376 9.47827 386.804 9.15049C387.232 8.82271 387.772 8.67834 388.306 8.74914C388.841 8.81994 389.325 9.10012 389.653 9.52802C389.98 9.95593 390.125 10.4965 390.054 11.0309C390.009 11.4446 389.833 11.8331 389.55 12.139C390.185 12.411 390.809 12.6628 391.444 12.9046C391.572 12.4216 391.874 12.0032 392.293 11.7308C392.712 11.4583 393.217 11.3513 393.71 11.4304C394.203 11.5095 394.65 11.7691 394.962 12.1588C395.275 12.5485 395.432 13.0405 395.402 13.5393C395.382 13.7016 395.342 13.8607 395.281 14.0127C395.838 14.115 396.399 14.1889 396.963 14.2344C396.958 14.1606 396.958 14.0865 396.963 14.0127C396.963 13.4784 397.176 12.9659 397.553 12.5881C397.931 12.2102 398.443 11.998 398.978 11.998C399.512 11.998 400.024 12.2102 400.402 12.5881C400.78 12.9659 400.992 13.4784 400.992 14.0127C401.506 13.9523 401.999 13.8717 402.372 13.8012C402.31 13.5716 402.292 13.3321 402.322 13.096C402.374 12.6652 402.564 12.2628 402.864 11.9489C403.164 11.635 403.557 11.4263 403.985 11.3538C404.413 11.2814 404.852 11.349 405.239 11.5468C405.625 11.7445 405.937 12.0618 406.129 12.4513C406.431 12.27 406.733 12.0685 407.136 11.8368C406.909 11.4622 406.81 11.0236 406.854 10.5876C406.904 10.1616 407.089 9.76259 407.381 9.44878C407.673 9.13497 408.058 8.92272 408.48 8.84292C408.901 8.76311 409.337 8.81993 409.724 9.00509C410.111 9.19025 410.429 9.49409 410.631 9.87238L411.698 9.32839C397.514 4.96108 382.91 2.09448 368.127 0.775681C368.282 1.15569 368.317 1.57394 368.228 1.97447V1.97447Z" fill="#030202"/>
<path d="M412.434 14.0027L411.195 14.6172C411.392 14.9208 411.504 15.2719 411.519 15.6337C411.533 15.9956 411.45 16.3546 411.278 16.6732C411.106 16.9917 410.851 17.258 410.541 17.444C410.23 17.6299 409.875 17.7288 409.513 17.73C409.129 17.729 408.754 17.6185 408.431 17.4115C408.108 17.2045 407.851 16.9096 407.69 16.5614C407.257 16.8133 406.824 17.0853 406.391 17.3673C406.616 17.6964 406.736 18.0866 406.733 18.4855C406.733 19.0199 406.521 19.5323 406.143 19.9102C405.765 20.288 405.253 20.5003 404.719 20.5003C404.4 20.5 404.086 20.424 403.802 20.2787C403.519 20.1333 403.274 19.9227 403.087 19.6642L402.211 20.2988C402.381 20.6069 402.468 20.9542 402.463 21.3062C402.448 21.6951 402.321 22.0714 402.096 22.3895C401.872 22.7076 401.561 22.9541 401.2 23.099C400.839 23.2439 400.443 23.2811 400.061 23.206C399.68 23.131 399.328 22.947 399.048 22.6763L398.152 23.3512C398.187 23.5135 398.208 23.6788 398.212 23.8448C398.214 24.1992 398.122 24.5476 397.945 24.855C397.769 25.1624 397.515 25.4179 397.209 25.5957C396.902 25.7735 396.554 25.8673 396.2 25.8676C395.846 25.868 395.498 25.7749 395.191 25.5977L395.009 25.7387C399.609 30.2459 402.935 35.8902 404.648 42.0987L407.247 41.3331C407.029 41.0893 406.873 40.796 406.793 40.4785C406.714 40.1611 406.713 39.8291 406.791 39.5112C406.868 39.1933 407.022 38.8991 407.239 38.654C407.456 38.409 407.729 38.2204 408.035 38.1046C408.341 37.9889 408.67 37.9494 408.995 37.9896C409.32 38.0299 409.63 38.1486 409.898 38.3356C410.167 38.5225 410.386 38.7721 410.536 39.0626C410.687 39.3532 410.764 39.6761 410.762 40.0033C410.767 40.1006 410.767 40.1981 410.762 40.2954L413.783 39.4089V38.5728C413.505 38.8628 413.146 39.0629 412.753 39.1474C412.361 39.2318 411.951 39.1968 411.578 39.0468C411.206 38.8967 410.886 38.6386 410.661 38.3055C410.436 37.9724 410.316 37.5796 410.316 37.1776C410.316 36.7756 410.436 36.3828 410.661 36.0497C410.886 35.7166 411.206 35.4584 411.578 35.3084C411.951 35.1584 412.361 35.1233 412.753 35.2078C413.146 35.2922 413.505 35.4923 413.783 35.7824V15.1914C413.482 15.1114 413.203 14.9623 412.969 14.756C412.734 14.5497 412.551 14.2918 412.434 14.0027V14.0027Z" fill="#030202"/>
<path d="M320.226 4.51308C321.74 3.69119 323.312 2.98078 324.929 2.3875C322.915 2.7703 320.9 3.21355 318.836 3.6971C319.111 3.73009 319.377 3.81959 319.616 3.96C319.855 4.10041 320.063 4.2887 320.226 4.51308V4.51308Z" fill="#030202"/>
<path d="M298.803 31.4707C298.245 31.7998 297.671 32.1625 297.08 32.5587C297.312 32.8973 297.438 33.2969 297.443 33.7071C297.448 33.7776 297.448 33.8483 297.443 33.9187C298.047 33.2639 298.672 32.6091 299.316 31.9744C299.12 31.8346 298.946 31.6646 298.803 31.4707V31.4707Z" fill="#030202"/>
<path d="M293.867 34.9664C293.444 35.3391 293.021 35.732 292.619 36.1349C292.949 36.3916 293.192 36.7449 293.312 37.1458C293.433 37.5467 293.426 37.9752 293.292 38.3718C293.158 38.7684 292.904 39.1134 292.565 39.3589C292.226 39.6043 291.818 39.738 291.4 39.7414C290.871 39.7392 290.365 39.5293 289.99 39.1571C289.647 39.5903 289.325 40.0335 288.983 40.4869C289.252 40.6071 289.492 40.7851 289.685 41.0082C289.878 41.2313 290.019 41.4941 290.1 41.7779C290.18 42.0618 290.197 42.3599 290.149 42.651C290.102 42.9422 289.991 43.2194 289.825 43.463C289.658 43.7066 289.44 43.9107 289.187 44.0609C288.933 44.211 288.649 44.3036 288.355 44.332C288.062 44.3604 287.765 44.324 287.488 44.2253C287.21 44.1266 286.957 43.968 286.747 43.7609C286.354 44.3552 285.971 44.9596 285.578 45.5742C286.012 45.7457 286.374 46.0626 286.6 46.4709C286.826 46.8792 286.904 47.3534 286.819 47.8125C286.735 48.2717 286.494 48.6872 286.137 48.9882C285.78 49.2892 285.33 49.4569 284.863 49.4627C284.354 49.4609 283.865 49.2665 283.493 48.9187C283.312 49.2209 283.121 49.5231 282.929 49.8253C283.305 50.1416 283.552 50.5842 283.625 51.0699C283.697 51.5557 283.589 52.0512 283.322 52.4632C283.055 52.8753 282.647 53.1755 282.174 53.3075C281.701 53.4394 281.196 53.3941 280.754 53.1799L280.119 54.1067C280.392 54.3923 280.574 54.7516 280.644 55.1399C280.714 55.5283 280.668 55.9286 280.513 56.2912C280.357 56.6538 280.098 56.9628 279.769 57.1798C279.439 57.3967 279.053 57.5121 278.659 57.5117C278.335 57.5092 278.016 57.4261 277.732 57.2699C277.531 57.5217 277.319 57.7937 277.108 58.0355C277.322 58.2113 277.497 58.4293 277.623 58.676C277.749 58.9226 277.823 59.1926 277.84 59.4691C277.857 59.7455 277.817 60.0225 277.722 60.2828C277.627 60.543 277.48 60.7809 277.289 60.9815C277.098 61.1822 276.868 61.3413 276.613 61.449C276.357 61.5567 276.083 61.6105 275.806 61.6073C275.529 61.604 275.256 61.5437 275.003 61.4301C274.751 61.3164 274.524 61.1519 274.338 60.9469L273.613 61.652C273.981 62.0289 274.187 62.5352 274.187 63.0624C274.182 63.4682 274.055 63.8632 273.822 64.1955C273.589 64.5277 273.261 64.7818 272.881 64.9245C272.501 65.0671 272.087 65.0917 271.692 64.9949C271.298 64.8981 270.943 64.6845 270.672 64.382L269.665 65.2383C269.966 65.5968 270.134 66.0492 270.138 66.5177C270.135 66.9324 270.004 67.3361 269.764 67.6737C269.523 68.0113 269.184 68.2664 268.793 68.4041C268.402 68.5419 267.978 68.5555 267.579 68.4433C267.179 68.331 266.825 68.0983 266.563 67.7769L265.656 68.472C265.948 68.8227 266.109 69.2646 266.109 69.7212C266.107 70.1536 265.966 70.5739 265.706 70.9198C265.447 71.2657 265.083 71.5189 264.669 71.642C264.254 71.7652 263.811 71.7516 263.405 71.6035C262.999 71.4553 262.651 71.1803 262.413 70.8192L261.607 71.3632C261.799 71.5821 261.942 71.84 262.025 72.1192C262.108 72.3984 262.129 72.6923 262.087 72.9806C262.046 73.2689 261.942 73.5447 261.784 73.7891C261.625 74.0334 261.416 74.2405 261.17 74.3961C260.923 74.5517 260.646 74.652 260.358 74.6901C260.069 74.7283 259.775 74.7034 259.497 74.6172C259.219 74.5309 258.963 74.3854 258.746 74.1906C258.53 73.9958 258.358 73.7564 258.243 73.4888L257.236 74.1033C257.389 74.3396 257.49 74.6053 257.534 74.8832C257.578 75.1611 257.563 75.4452 257.49 75.717C257.418 75.9888 257.289 76.2424 257.112 76.4615C256.936 76.6805 256.715 76.8602 256.465 76.9888C256.215 77.1174 255.941 77.1923 255.66 77.2084C255.379 77.2246 255.098 77.1817 254.835 77.0826C254.571 76.9835 254.332 76.8303 254.131 76.633C253.931 76.4356 253.774 76.1985 253.671 75.9368C253.389 76.0476 253.117 76.1483 252.835 76.239C252.862 76.3342 252.879 76.4322 252.885 76.5311C252.932 77.0655 252.764 77.5965 252.42 78.0074C252.075 78.4183 251.581 78.6754 251.047 78.7222C250.513 78.7689 249.982 78.6015 249.571 78.2567C249.16 77.912 248.903 77.4181 248.856 76.8837H248.252C247.156 82.6699 246.529 88.5352 246.379 94.4223C246.734 94.1321 247.178 93.9722 247.638 93.969C248.172 93.969 248.684 94.1812 249.062 94.5591C249.44 94.9369 249.652 95.4494 249.652 95.9837C249.651 96.1362 249.634 96.2881 249.602 96.4371L250.296 96.568C250.312 96.3034 250.38 96.0446 250.496 95.8062C250.612 95.5678 250.774 95.3546 250.972 95.1788C251.17 95.0029 251.401 94.8678 251.652 94.7812C251.902 94.6947 252.167 94.6583 252.432 94.6741C252.696 94.69 252.955 94.7578 253.193 94.8738C253.432 94.9897 253.645 95.1514 253.821 95.3497C253.997 95.5481 254.132 95.7791 254.218 96.0296C254.305 96.2801 254.341 96.5452 254.325 96.8098C254.335 96.9204 254.335 97.0316 254.325 97.1422L255.212 97.253C255.245 96.7187 255.489 96.2195 255.891 95.8653C256.292 95.511 256.818 95.3308 257.352 95.3642C257.886 95.3976 258.385 95.6419 258.739 96.0434C259.094 96.4448 259.274 96.9705 259.24 97.5049C259.24 97.5049 259.24 97.5049 259.24 97.5653C259.754 97.5653 260.248 97.5653 260.771 97.5653C260.784 97.0907 260.963 96.6357 261.278 96.2806C261.594 95.9256 262.024 95.6932 262.494 95.6245C262.963 95.5559 263.442 95.6553 263.846 95.9054C264.249 96.1554 264.552 96.5399 264.699 96.9911C265.223 96.8602 265.706 96.7091 266.301 96.5277C266.201 96.0659 266.266 95.5836 266.486 95.1652C266.706 94.7468 267.065 94.4189 267.502 94.2388C267.939 94.0588 268.425 94.038 268.876 94.1802C269.326 94.3224 269.712 94.6185 269.967 95.0167C270.41 94.795 270.863 94.5633 271.327 94.3115C271.199 94.0058 271.149 93.6733 271.181 93.3435C271.212 93.0138 271.325 92.6969 271.508 92.421C271.691 92.1451 271.939 91.9186 272.231 91.7616C272.523 91.6046 272.849 91.522 273.18 91.521C273.483 91.5236 273.782 91.5947 274.054 91.729C274.326 91.8634 274.564 92.0574 274.751 92.2967C275.255 91.9844 275.758 91.6721 276.222 91.3598C275.979 91.0185 275.849 90.6101 275.849 90.1913C275.851 89.7588 275.992 89.3386 276.252 88.9927C276.511 88.6468 276.875 88.3935 277.29 88.2704C277.704 88.1473 278.147 88.1608 278.553 88.309C278.96 88.4572 279.307 88.7321 279.545 89.0932L279.787 88.922C279.394 76.9643 280.865 53.5929 295.983 35.7219C295.831 35.7575 295.675 35.7777 295.519 35.7824C295.199 35.7875 294.882 35.7162 294.595 35.5743C294.307 35.4324 294.058 35.224 293.867 34.9664V34.9664Z" fill="#030202"/>
<path d="M394.163 23.8448C394.171 23.3595 394.354 22.8935 394.679 22.5323C395.003 22.1712 395.447 21.9393 395.928 21.8793C396.41 21.8192 396.897 21.935 397.3 22.2055C397.703 22.4759 397.995 22.8828 398.122 23.3512L399.018 22.6763C398.81 22.4726 398.649 22.2263 398.546 21.9544C398.442 21.6825 398.399 21.3915 398.419 21.1013C398.439 20.811 398.521 20.5285 398.66 20.2732C398.8 20.0178 398.992 19.7956 399.226 19.6219C399.459 19.4482 399.727 19.3271 400.012 19.2669C400.296 19.2067 400.59 19.2088 400.874 19.2731C401.158 19.3374 401.424 19.4624 401.655 19.6395C401.886 19.8165 402.075 20.0415 402.211 20.2988L403.087 19.6642C402.842 19.3201 402.712 18.9078 402.714 18.4855C402.719 18.057 402.859 17.641 403.116 17.298C403.373 16.955 403.733 16.7029 404.143 16.5782C404.552 16.4535 404.991 16.4628 405.396 16.6047C405.8 16.7466 406.149 17.0138 406.391 17.3673C406.824 17.0853 407.257 16.8133 407.69 16.5614C407.567 16.2997 407.502 16.0145 407.499 15.7253C407.499 15.292 407.638 14.8703 407.897 14.5227C408.156 14.1752 408.52 13.9203 408.935 13.7959C409.35 13.6715 409.794 13.6842 410.201 13.8321C410.608 13.9801 410.957 14.2554 411.195 14.6172L412.434 14.0027C412.341 13.7685 412.293 13.5191 412.293 13.2673C412.295 12.8331 412.437 12.4112 412.699 12.0645C412.96 11.7177 413.326 11.4647 413.743 11.3432V9.9832C413.743 9.9832 412.988 9.72128 411.588 9.27803L410.52 9.82202C410.713 10.1793 410.794 10.5866 410.752 10.9906C410.691 11.5207 410.423 12.005 410.005 12.3374C409.588 12.6698 409.056 12.8231 408.526 12.7636C408.215 12.7242 407.917 12.6126 407.656 12.4377C407.396 12.2628 407.18 12.0294 407.025 11.7562C406.663 11.9879 406.36 12.1894 406.018 12.3707C406.151 12.6257 406.227 12.9062 406.243 13.1934C406.258 13.4805 406.212 13.7676 406.107 14.0354C406.003 14.3032 405.842 14.5455 405.636 14.746C405.43 14.9465 405.183 15.1005 404.912 15.1977C404.642 15.2949 404.354 15.3331 404.067 15.3096C403.781 15.2862 403.502 15.2017 403.251 15.0617C403 14.9218 402.782 14.7297 402.611 14.4984C402.44 14.2671 402.321 14.0019 402.261 13.7206C401.848 13.7911 401.395 13.8717 400.881 13.9322C400.901 14.086 400.901 14.2417 400.881 14.3955C400.866 14.6601 400.799 14.9191 400.684 15.1578C400.568 15.3964 400.407 15.6099 400.209 15.7863C400.012 15.9626 399.781 16.0982 399.531 16.1854C399.281 16.2726 399.016 16.3097 398.751 16.2945C398.487 16.2793 398.228 16.2121 397.989 16.0968C397.75 15.9815 397.537 15.8203 397.361 15.6224C397.184 15.4246 397.049 15.194 396.962 14.9437C396.874 14.6934 396.837 14.4284 396.853 14.1639C396.288 14.1184 395.727 14.0445 395.171 13.9422C394.991 14.392 394.656 14.7623 394.227 14.9853C393.797 15.2083 393.302 15.2691 392.831 15.1565C392.36 15.044 391.946 14.7657 391.663 14.3725C391.381 13.9793 391.249 13.4976 391.293 13.0154C391.293 12.9449 391.293 12.8945 391.293 12.8341C390.658 12.5923 390.034 12.3405 389.399 12.0685C389.114 12.3827 388.737 12.5988 388.322 12.6859C387.906 12.773 387.474 12.7267 387.087 12.5536C386.699 12.3805 386.376 12.0894 386.164 11.7219C385.952 11.3544 385.861 10.9292 385.904 10.507C385.904 10.507 385.904 10.4567 385.904 10.4264L384.464 9.68098C384.171 9.98188 383.791 10.1836 383.378 10.258C382.965 10.3324 382.538 10.2758 382.159 10.096C381.779 9.91613 381.465 9.62215 381.261 9.25514C381.057 8.88812 380.972 8.46642 381.02 8.04902C381.016 7.98526 381.016 7.92137 381.02 7.85761L379.307 6.95097C379.078 7.40255 378.688 7.75142 378.214 7.92818C377.739 8.10494 377.216 8.09662 376.748 7.90489C376.279 7.71315 375.9 7.35205 375.686 6.89343C375.471 6.43481 375.437 5.91228 375.591 5.42981L375.681 5.23841L374.07 4.51309C373.84 4.95401 373.454 5.29407 372.988 5.46778C372.522 5.64149 372.008 5.63656 371.545 5.45395C371.083 5.27133 370.704 4.92394 370.482 4.47869C370.26 4.03343 370.211 3.52179 370.343 3.04231C370.343 2.99194 370.343 2.95164 370.394 2.91135C369.618 2.57891 368.833 2.25655 368.057 1.90396C368.043 2.01661 368.02 2.12785 367.986 2.2364C367.915 2.50067 367.789 2.74749 367.619 2.96177C367.448 3.17605 367.236 3.35329 366.994 3.48266C366.753 3.61203 366.488 3.69082 366.215 3.71421C365.942 3.73759 365.667 3.70509 365.407 3.61868C365.148 3.53226 364.908 3.39376 364.704 3.21163C364.499 3.02951 364.334 2.80758 364.218 2.5594C364.102 2.31123 364.038 2.04204 364.03 1.76826C364.021 1.49448 364.069 1.22187 364.169 0.967093C364.217 0.822363 364.281 0.683727 364.361 0.554065L363.625 0.332441L362.346 0.241776C362.203 0.651692 361.932 1.00442 361.572 1.24741C361.212 1.4904 360.783 1.61066 360.35 1.59028C359.916 1.5699 359.501 1.40996 359.165 1.13429C358.83 0.858626 358.593 0.481977 358.489 0.0604461L356.061 -0.0201447C355.844 0.41281 355.478 0.752951 355.03 0.937964C354.583 1.12298 354.083 1.14047 353.624 0.987241C353.364 0.899725 353.124 0.759847 352.919 0.57621C352.715 0.392572 352.55 0.169057 352.435 -0.0805893C351.952 -0.0805893 351.428 -0.0805893 350.965 -0.0805893C350.716 0.268887 350.362 0.529671 349.954 0.663762C349.546 0.797853 349.107 0.798244 348.699 0.664878C348.298 0.540541 347.946 0.293997 347.692 -0.0402929L345.919 0.0201497C345.662 0.337724 345.314 0.569479 344.922 0.684634C344.529 0.79979 344.111 0.7929 343.723 0.664878C343.419 0.558324 343.143 0.382449 342.918 0.151111C336.81 0.46628 330.73 1.18646 324.718 2.30692C323.1 2.9002 321.528 3.61061 320.014 4.4325C320.314 4.83814 320.45 5.34139 320.397 5.84284C320.347 6.2689 320.162 6.66788 319.87 6.98168C319.577 7.29549 319.192 7.50775 318.771 7.58755C318.349 7.66735 317.914 7.61054 317.527 7.42538C317.14 7.24021 316.822 6.93637 316.62 6.55809L315.613 7.21289C315.755 7.52835 315.811 7.87612 315.774 8.22027C315.713 8.75036 315.445 9.23473 315.027 9.56711C314.61 9.8995 314.078 10.0528 313.548 9.99327C313.092 9.9375 312.67 9.72781 312.349 9.39892L311.342 10.0839C311.418 10.3385 311.439 10.6065 311.403 10.8697C311.372 11.3794 311.149 11.8584 310.779 12.21C310.409 12.5615 309.919 12.7594 309.408 12.7636C309.078 12.7235 308.764 12.6024 308.492 12.411L307.626 13.0356C307.9 13.4604 308.004 13.9727 307.918 14.4708C307.831 14.9689 307.561 15.4164 307.161 15.7246C306.76 16.0327 306.258 16.179 305.755 16.1343C305.251 16.0897 304.783 15.8574 304.443 15.4835L303.526 16.2189C303.771 16.4333 303.961 16.7038 304.078 17.0073C304.196 17.3108 304.238 17.6383 304.201 17.9617C304.141 18.4918 303.872 18.9762 303.455 19.3085C303.038 19.6409 302.505 19.7942 301.975 19.7347C301.67 19.6993 301.378 19.5947 301.119 19.4289C300.861 19.263 300.644 19.0403 300.485 18.7777L299.478 19.7045C299.709 19.892 299.895 20.1283 300.024 20.3965C300.153 20.6648 300.221 20.9583 300.223 21.2559C300.22 21.6833 300.081 22.0987 299.826 22.442C299.571 22.7852 299.214 23.0385 298.806 23.1653C298.398 23.292 297.96 23.2856 297.555 23.147C297.151 23.0084 296.801 22.7447 296.557 22.3942L295.6 23.3109C295.8 23.496 295.961 23.7199 296.072 23.969C296.183 24.218 296.243 24.4871 296.247 24.7599C296.251 25.0326 296.2 25.3034 296.096 25.5558C295.993 25.8082 295.839 26.0369 295.645 26.228C295.45 26.4192 295.219 26.5689 294.965 26.668C294.711 26.7671 294.439 26.8135 294.166 26.8045C293.894 26.7955 293.626 26.7312 293.379 26.6155C293.132 26.4999 292.911 26.3352 292.729 26.1316L291.934 26.9174C292.283 27.2987 292.472 27.7999 292.463 28.3171C292.453 28.8343 292.244 29.3279 291.88 29.6956C291.517 30.0633 291.025 30.277 290.508 30.2924C289.992 30.3078 289.488 30.1237 289.103 29.7783C288.892 30 288.68 30.2115 288.479 30.4331C288.769 30.789 288.929 31.2332 288.932 31.6924C288.932 32.2267 288.72 32.7392 288.342 33.117C287.964 33.4949 287.452 33.7071 286.918 33.7071C286.507 33.7062 286.106 33.5796 285.77 33.3445L285.045 34.1605C285.289 34.315 285.498 34.5206 285.656 34.7631C285.814 35.0056 285.918 35.2793 285.961 35.5656C286.004 35.852 285.985 36.1442 285.905 36.4224C285.824 36.7006 285.685 36.9582 285.496 37.1778C285.308 37.3973 285.074 37.5736 284.811 37.6945C284.548 37.8155 284.262 37.8784 283.972 37.8788C283.683 37.8793 283.397 37.8173 283.133 37.6972C282.87 37.5771 282.635 37.4015 282.446 37.1826L281.761 38.0087C282.008 38.156 282.22 38.3544 282.384 38.5906C282.548 38.8268 282.659 39.0953 282.711 39.3781C282.762 39.6609 282.753 39.9515 282.683 40.2303C282.612 40.509 282.483 40.7696 282.304 40.9944C282.125 41.2192 281.9 41.4031 281.644 41.5337C281.388 41.6643 281.107 41.7386 280.82 41.7516C280.533 41.7646 280.246 41.716 279.98 41.609C279.713 41.5021 279.472 41.3393 279.273 41.1316L278.629 41.9476C278.933 42.2272 279.143 42.5935 279.232 42.9968C279.321 43.4002 279.284 43.8211 279.125 44.2025C278.967 44.584 278.695 44.9076 278.347 45.1295C277.999 45.3514 277.591 45.4609 277.178 45.4432C276.821 45.4304 276.473 45.3226 276.171 45.1309L275.527 45.9368C275.745 46.1238 275.921 46.3553 276.043 46.616C276.164 46.8766 276.229 47.1603 276.232 47.4479C276.232 47.9822 276.019 48.4947 275.642 48.8725C275.264 49.2504 274.751 49.4627 274.217 49.4627C273.78 49.4598 273.356 49.3148 273.009 49.0496C272.777 49.3317 272.555 49.6138 272.314 49.8958C272.625 50.1624 272.848 50.5178 272.953 50.9144C273.057 51.3111 273.038 51.7302 272.898 52.1157C272.758 52.5012 272.503 52.8347 272.168 53.0717C271.834 53.3087 271.435 53.4378 271.024 53.4418C270.529 53.4381 270.052 53.2515 269.685 52.918C269.376 53.2471 269.064 53.5829 268.748 53.9254C269.018 54.1104 269.239 54.3584 269.392 54.648C269.545 54.9377 269.624 55.2601 269.624 55.5876C269.616 56.0242 269.467 56.4464 269.198 56.7905C268.929 57.1347 268.556 57.3823 268.135 57.4959C267.713 57.6096 267.266 57.5832 266.861 57.4207C266.456 57.2582 266.114 56.9684 265.888 56.595L264.991 57.3505C265.207 57.5507 265.376 57.7955 265.486 58.0679C265.597 58.3403 265.647 58.6336 265.632 58.9272C265.617 59.2209 265.538 59.5077 265.401 59.7676C265.264 60.0276 265.071 60.2543 264.837 60.4319C264.603 60.6095 264.332 60.7336 264.045 60.7957C263.758 60.8577 263.46 60.8561 263.173 60.7909C262.887 60.7257 262.618 60.5986 262.386 60.4185C262.153 60.2383 261.963 60.0095 261.829 59.7481L261.003 60.3122C261.221 60.5279 261.388 60.7906 261.489 61.0803C261.591 61.3701 261.624 61.6792 261.588 61.984C261.552 62.2889 261.447 62.5814 261.28 62.8393C261.114 63.0972 260.89 63.3136 260.627 63.472C260.364 63.6304 260.069 63.7266 259.763 63.7533C259.457 63.78 259.149 63.7365 258.863 63.626C258.577 63.5155 258.319 63.3411 258.111 63.1159C257.902 62.8908 257.748 62.6209 257.659 62.327L256.551 62.9314C256.738 63.1686 256.868 63.4446 256.934 63.7391C256.999 64.0337 256.998 64.3391 256.93 64.633C256.861 64.9269 256.728 65.2017 256.539 65.4371C256.351 65.6725 256.111 65.8625 255.84 65.9931C255.568 66.1237 255.27 66.1915 254.968 66.1916C254.666 66.1916 254.369 66.124 254.097 65.9935C253.825 65.863 253.585 65.6731 253.397 65.4378C253.208 65.2025 253.074 64.9278 253.006 64.6339L252.2 64.9865C252.273 65.1706 252.32 65.3638 252.341 65.5607C252.36 65.8246 252.327 66.0898 252.244 66.3409C252.161 66.5921 252.029 66.8244 251.856 67.0246C251.683 67.2248 251.472 67.389 251.236 67.5077C250.999 67.6264 250.742 67.6973 250.478 67.7165C249.581 70.8293 248.866 73.9018 248.302 76.8837H248.907C248.907 76.8837 248.907 76.8837 248.907 76.8233C248.892 76.3299 249.059 75.8484 249.376 75.4701C249.693 75.0918 250.138 74.843 250.626 74.771C251.114 74.6989 251.612 74.8086 252.024 75.0792C252.437 75.3498 252.736 75.7625 252.865 76.239C253.147 76.1483 253.419 76.0476 253.701 75.9368C253.579 75.6744 253.514 75.3896 253.509 75.1006C253.51 74.6578 253.657 74.2275 253.927 73.8764C254.197 73.5253 254.574 73.2728 255.002 73.1582C255.43 73.0435 255.883 73.0729 256.293 73.242C256.702 73.411 257.044 73.7102 257.266 74.0933L258.273 73.4787C258.156 73.2157 258.094 72.9309 258.092 72.6426C258.092 72.1083 258.304 71.5958 258.682 71.218C259.06 70.8401 259.572 70.6278 260.106 70.6278C260.399 70.6303 260.688 70.6965 260.952 70.8217C261.216 70.947 261.45 71.1283 261.637 71.3532L262.443 70.8092C262.224 70.4852 262.108 70.1023 262.111 69.7111C262.111 69.1768 262.323 68.6643 262.701 68.2865C263.079 67.9086 263.591 67.6964 264.125 67.6964C264.425 67.698 264.721 67.7668 264.991 67.8975C265.261 68.0282 265.499 68.2176 265.686 68.4519L266.593 67.7568C266.376 67.5613 266.204 67.3211 266.089 67.0526C265.975 66.7842 265.92 66.494 265.928 66.2022C265.936 65.9103 266.008 65.6238 266.138 65.3625C266.268 65.1011 266.454 64.8711 266.681 64.6885C266.909 64.5058 267.174 64.3748 267.457 64.3046C267.74 64.2344 268.036 64.2266 268.322 64.2818C268.609 64.3369 268.88 64.4538 269.117 64.6241C269.354 64.7945 269.551 65.0144 269.695 65.2685L270.702 64.4123C270.381 64.0476 270.202 63.5789 270.199 63.0926C270.199 62.5582 270.411 62.0458 270.789 61.6679C271.166 61.2901 271.679 61.0778 272.213 61.0778C272.479 61.0776 272.742 61.13 272.987 61.232C273.233 61.334 273.456 61.4836 273.643 61.6722L274.368 60.967C274.088 60.6853 273.898 60.327 273.821 59.9373C273.744 59.5476 273.784 59.1438 273.935 58.7767C274.087 58.4096 274.344 58.0956 274.674 57.8741C275.003 57.6526 275.391 57.5335 275.788 57.5318C276.288 57.5331 276.769 57.7198 277.138 58.0557C277.35 57.8139 277.561 57.5419 277.763 57.2901C277.437 57.1214 277.164 56.8672 276.972 56.5548C276.78 56.2424 276.678 55.8836 276.675 55.5171C276.674 55.114 276.795 54.72 277.02 54.386C277.246 54.0521 277.567 53.7936 277.941 53.6439C278.315 53.4942 278.726 53.4602 279.119 53.5463C279.513 53.6324 279.872 53.8346 280.15 54.1269L280.784 53.2001C280.415 52.9718 280.13 52.6307 279.971 52.2273C279.811 51.8239 279.786 51.3798 279.9 50.9611C280.013 50.5424 280.258 50.1714 280.599 49.9033C280.94 49.6351 281.358 49.4841 281.791 49.4727C282.199 49.4712 282.597 49.598 282.929 49.8354C283.121 49.5332 283.312 49.231 283.493 48.9287C283.202 48.6523 283.001 48.2952 282.914 47.9033C282.827 47.5114 282.86 47.1025 283.007 46.7291C283.154 46.3556 283.409 46.0347 283.74 45.8074C284.071 45.5801 284.462 45.4568 284.863 45.4533C285.108 45.4532 285.35 45.4976 285.578 45.5842C285.971 44.9697 286.354 44.3653 286.747 43.7709C286.542 43.584 286.379 43.3568 286.266 43.1038C286.153 42.8507 286.094 42.5771 286.092 42.3001C286.092 41.7658 286.304 41.2533 286.682 40.8755C287.06 40.4976 287.572 40.2854 288.106 40.2854C288.411 40.2862 288.711 40.3587 288.983 40.4969C289.315 40.0436 289.637 39.6003 289.99 39.1672C289.801 38.9818 289.65 38.7609 289.546 38.5171C289.443 38.2734 289.388 38.0116 289.385 37.7468C289.385 37.2124 289.598 36.6999 289.975 36.3221C290.353 35.9443 290.866 35.732 291.4 35.732C291.84 35.7327 292.268 35.8778 292.619 36.145C293.021 35.7421 293.444 35.3492 293.867 34.9764C293.577 34.6206 293.417 34.1764 293.414 33.7172C293.415 33.2889 293.553 32.872 293.807 32.5271C294.061 32.1823 294.418 31.9273 294.827 31.7993C295.235 31.6713 295.674 31.6769 296.079 31.8152C296.485 31.9536 296.835 32.2176 297.08 32.5688C297.678 32.1726 298.252 31.8099 298.803 31.4808C298.584 31.149 298.468 30.76 298.47 30.3626C298.476 29.9299 298.62 29.5103 298.883 29.1662C299.145 28.822 299.511 28.5715 299.927 28.4517C300.343 28.3319 300.786 28.3492 301.191 28.501C301.597 28.6529 301.942 28.9312 302.177 29.2948C306.472 25.5816 311.257 22.4766 316.398 20.0671C348.115 5.04701 377.061 12.3203 392.481 23.6534C393.364 24.3027 394.211 24.9988 395.019 25.7387L395.201 25.5977C394.888 25.424 394.627 25.1701 394.444 24.862C394.262 24.554 394.165 24.2028 394.163 23.8448Z" fill="#9A6334"/>
<path d="M279.737 89.6977C279.737 89.4257 279.737 89.1436 279.737 88.8615L279.495 89.0328C279.611 89.2397 279.693 89.4643 279.737 89.6977V89.6977Z" fill="#9A6334"/>
<path d="M279.767 90.3525C279.72 90.7563 279.553 91.1367 279.286 91.4436C279.02 91.7505 278.667 91.9695 278.273 92.072C277.88 92.1744 277.465 92.1555 277.082 92.0176C276.7 91.8797 276.368 91.6293 276.131 91.2994C275.657 91.6117 275.124 91.924 274.66 92.2363C274.943 92.5881 275.099 93.0244 275.104 93.4754C275.1 93.9386 274.938 94.3865 274.643 94.7438C274.348 95.1011 273.939 95.3459 273.485 95.437C273.031 95.5281 272.56 95.4598 272.15 95.2438C271.74 95.0278 271.417 94.6772 271.236 94.2511C270.773 94.5029 270.319 94.7346 269.876 94.9562C270.061 95.2603 270.162 95.6079 270.168 95.9636C270.168 96.498 269.956 97.0104 269.578 97.3883C269.201 97.7661 268.688 97.9784 268.154 97.9784C267.706 97.9758 267.271 97.8238 266.919 97.5465C266.567 97.2691 266.318 96.8823 266.21 96.4472C265.656 96.6285 265.132 96.7796 264.609 96.9106C264.673 97.0953 264.707 97.2892 264.709 97.4848C264.709 98.0191 264.497 98.5316 264.119 98.9094C263.742 99.2873 263.229 99.4995 262.695 99.4995C262.161 99.4995 261.648 99.2873 261.271 98.9094C260.893 98.5316 260.681 98.0191 260.681 97.4848C260.177 97.4848 259.673 97.4848 259.15 97.4848C259.142 98.0191 258.922 98.5284 258.538 98.9006C258.155 99.2727 257.639 99.4773 257.105 99.4693C256.571 99.4613 256.062 99.2413 255.69 98.8578C255.317 98.4743 255.113 97.9587 255.121 97.4243C255.115 97.3405 255.115 97.2563 255.121 97.1725L254.235 97.0617C254.191 97.596 253.936 98.091 253.527 98.4376C253.118 98.7843 252.588 98.9543 252.054 98.9102C251.52 98.8661 251.025 98.6116 250.678 98.2026C250.332 97.7936 250.162 97.2636 250.206 96.7292C250.201 96.6487 250.201 96.568 250.206 96.4874L249.511 96.3565C249.431 96.6915 249.266 97.0005 249.033 97.2538C248.8 97.5072 248.505 97.6964 248.178 97.8035C247.851 97.9106 247.501 97.932 247.163 97.8656C246.825 97.7992 246.51 97.6473 246.248 97.4243C246.24 102.035 246.526 106.641 247.104 111.215L247.648 111.377C247.643 111.357 247.643 111.336 247.648 111.316C247.811 110.863 248.13 110.484 248.549 110.246C248.968 110.009 249.458 109.929 249.93 110.022C250.402 110.114 250.826 110.373 251.124 110.751C251.422 111.129 251.575 111.601 251.555 112.082C252.333 112.135 253.114 112.135 253.892 112.082L280.22 96.5781C280.22 96.5781 279.958 94.2712 279.767 90.3525Z" fill="#9A6334"/>
<path d="M317.466 4.03962C304.99 7.08212 293.252 12.601 282.95 20.2686C282.194 20.8327 281.459 21.407 280.734 21.9912L280.643 22.0718V22.1726C280.585 22.7025 280.319 23.1878 279.904 23.522C279.488 23.8562 278.957 24.0122 278.427 23.9556V23.9556L277.702 24.5701L277.571 24.691C277.785 25.0851 277.862 25.5393 277.789 25.9817C277.715 26.4241 277.497 26.8295 277.167 27.1336C276.838 27.4377 276.416 27.6232 275.97 27.6607C275.523 27.6981 275.076 27.5855 274.701 27.3405L273.965 28.0255C274.315 28.4069 274.504 28.9081 274.494 29.4252C274.484 29.9424 274.276 30.436 273.912 30.8037C273.548 31.1714 273.057 31.3851 272.54 31.4005C272.023 31.4159 271.52 31.2319 271.135 30.8865C270.954 31.0779 270.763 31.2693 270.581 31.4707C270.882 31.8723 271.022 32.3716 270.974 32.871C270.918 33.4009 270.655 33.887 270.241 34.2231C269.828 34.5591 269.298 34.7177 268.768 34.6642C268.505 34.6325 268.251 34.5467 268.023 34.4123L267.016 35.6111L266.955 35.6917C267.042 35.9474 267.073 36.2188 267.046 36.4875C266.99 36.995 266.744 37.4624 266.357 37.7952C265.97 38.1281 265.471 38.3016 264.961 38.2807C264.538 38.8347 264.115 39.3989 263.712 39.9529C258.467 47.3561 254.366 55.5064 251.545 64.1302C251.827 64.3495 252.043 64.6423 252.17 64.9764L252.976 64.6238C252.931 64.4596 252.907 64.2903 252.905 64.1201C252.91 63.7007 253.046 63.2932 253.293 62.9545C253.54 62.6159 253.887 62.3629 254.286 62.2309C254.684 62.0989 255.113 62.0945 255.514 62.2183C255.914 62.342 256.267 62.5878 256.521 62.9213L257.629 62.3169C257.561 62.1119 257.524 61.8981 257.518 61.6823C257.518 61.2817 257.637 60.8901 257.86 60.5575C258.083 60.225 258.4 59.9665 258.771 59.8151C259.142 59.6637 259.549 59.6264 259.942 59.7077C260.334 59.7891 260.693 59.9855 260.973 60.2719L261.799 59.7078C261.632 59.4164 261.545 59.0863 261.547 58.7508C261.548 58.3559 261.666 57.9702 261.885 57.6416C262.104 57.3129 262.414 57.0559 262.778 56.9025C263.142 56.749 263.543 56.7058 263.931 56.7783C264.319 56.8508 264.677 57.0357 264.961 57.3102L265.858 56.5547C265.669 56.2522 265.568 55.9036 265.565 55.5473C265.566 55.1805 265.666 54.8207 265.855 54.5066C266.045 54.1926 266.316 53.9362 266.641 53.7652C266.965 53.5941 267.33 53.5149 267.696 53.536C268.062 53.5572 268.415 53.6778 268.718 53.8851C269.034 53.5694 269.346 53.2336 269.655 52.8777C269.444 52.6902 269.275 52.4607 269.159 52.2039C269.043 51.947 268.982 51.6687 268.98 51.3868C268.98 50.8524 269.192 50.3399 269.57 49.9621C269.948 49.5843 270.46 49.372 270.994 49.372C271.467 49.3767 271.924 49.5479 272.283 49.8555C272.525 49.5735 272.747 49.2914 272.978 49.0093C272.648 48.7532 272.406 48.4008 272.285 48.0009C272.164 47.601 272.171 47.1733 272.303 46.7772C272.436 46.381 272.689 46.0359 273.026 45.7897C273.364 45.5435 273.769 45.4083 274.187 45.4029C274.669 45.4001 275.136 45.576 275.496 45.8965L276.171 45.1208C275.807 44.8908 275.526 44.55 275.37 44.1486C275.213 43.7471 275.19 43.3061 275.302 42.8902C275.415 42.4743 275.658 42.1055 275.996 41.838C276.333 41.5704 276.748 41.4182 277.178 41.4036C277.701 41.403 278.202 41.6053 278.578 41.9677L279.223 41.1517C278.946 40.8689 278.758 40.5106 278.683 40.1217C278.609 39.7327 278.65 39.3304 278.803 38.9649C278.955 38.5994 279.212 38.2871 279.541 38.0668C279.87 37.8466 280.257 37.7283 280.653 37.7266C281.01 37.7364 281.357 37.8407 281.66 38.0288L282.345 37.2028C282.029 36.8374 281.855 36.3706 281.854 35.8874C281.853 35.4042 282.026 34.9368 282.341 34.5705C282.656 34.2041 283.092 33.9632 283.57 33.8917C284.048 33.8201 284.535 33.9226 284.944 34.1806L285.669 33.3646C285.426 33.2026 285.222 32.9897 285.069 32.7407C284.917 32.4918 284.82 32.2127 284.786 31.9227C284.752 31.6327 284.782 31.3389 284.873 31.0615C284.964 30.7841 285.114 30.5297 285.313 30.316C285.511 30.1023 285.754 29.9344 286.025 29.8239C286.295 29.7134 286.586 29.6629 286.877 29.676C287.169 29.689 287.454 29.7653 287.713 29.8995C287.972 30.0337 288.199 30.2227 288.378 30.4533C288.58 30.2317 288.791 30.0201 289.003 29.7985C288.8 29.6163 288.636 29.3947 288.521 29.1472C288.406 28.8997 288.342 28.6314 288.334 28.3587C288.326 28.0859 288.374 27.8143 288.474 27.5604C288.574 27.3065 288.724 27.0756 288.916 26.8816C289.108 26.6876 289.337 26.5346 289.59 26.432C289.843 26.3293 290.114 26.279 290.386 26.2843C290.659 26.2895 290.928 26.3501 291.177 26.4624C291.425 26.5747 291.649 26.7363 291.833 26.9375L292.629 26.1517C292.284 25.7655 292.102 25.2616 292.119 24.7444C292.136 24.2272 292.351 23.7364 292.721 23.3738C293.09 23.0111 293.584 22.8044 294.101 22.7964C294.619 22.7885 295.119 22.9799 295.499 23.3311L296.456 22.4143C296.249 22.1124 296.129 21.7599 296.107 21.3946C296.086 21.0293 296.164 20.665 296.334 20.3409C296.504 20.0168 296.758 19.745 297.071 19.5548C297.383 19.3646 297.742 19.2631 298.108 19.2612C298.573 19.259 299.023 19.4234 299.377 19.7246L300.384 18.7978C300.152 18.4175 300.053 17.9712 300.102 17.5285C300.144 17.1639 300.285 16.8177 300.509 16.5272C300.733 16.2367 301.033 16.0131 301.375 15.8804C301.717 15.7476 302.089 15.7109 302.45 15.7741C302.812 15.8373 303.149 15.9981 303.426 16.2391L304.342 15.5037C304.169 15.2952 304.039 15.054 303.962 14.7943C303.884 14.5347 303.859 14.262 303.889 13.9926C303.95 13.4625 304.218 12.9781 304.635 12.6458C305.053 12.3134 305.585 12.1601 306.115 12.2196C306.395 12.2523 306.666 12.3437 306.909 12.4877C307.152 12.6318 307.362 12.8253 307.525 13.0557L308.391 12.4311C308.125 12.2476 307.907 12.0026 307.755 11.717C307.604 11.4314 307.523 11.1135 307.52 10.7901C307.517 10.4667 307.592 10.1474 307.739 9.85919C307.886 9.57094 308.099 9.3222 308.362 9.134C308.625 8.9458 308.929 8.82366 309.25 8.7779C309.57 8.73214 309.896 8.76411 310.201 8.87111C310.506 8.9781 310.781 9.15698 311.002 9.39262C311.224 9.62827 311.385 9.91376 311.473 10.225L312.48 9.53995C312.267 9.33146 312.103 9.07825 312 8.79861C311.896 8.51896 311.856 8.21983 311.882 7.92281C311.908 7.62579 312 7.33828 312.151 7.08102C312.302 6.82376 312.507 6.60316 312.754 6.43514C313 6.26713 313.281 6.15588 313.575 6.10942C313.869 6.06296 314.171 6.08246 314.457 6.1665C314.743 6.25054 315.006 6.39702 315.229 6.5954C315.452 6.79377 315.627 7.03907 315.744 7.31362L316.751 6.65882C316.522 6.22069 316.463 5.71382 316.583 5.23462C316.704 4.75541 316.997 4.33729 317.406 4.05976L317.466 4.03962Z" fill="#030202"/>
<path d="M251.153 65.3894C250.901 66.1651 250.669 66.9408 250.448 67.7165C250.712 67.6973 250.969 67.6264 251.206 67.5077C251.442 67.389 251.653 67.2248 251.826 67.0246C251.999 66.8244 252.131 66.5921 252.214 66.3409C252.297 66.0897 252.33 65.8246 252.311 65.5607C252.29 65.3638 252.243 65.1706 252.17 64.9865C252.043 64.6524 251.827 64.3596 251.545 64.1403L251.153 65.3894Z" fill="white"/>
<path d="M254.919 62.1255C254.385 62.1255 253.873 62.3378 253.495 62.7156C253.117 63.0935 252.905 63.6059 252.905 64.1403C252.905 64.6746 253.117 65.1871 253.495 65.5649C253.873 65.9428 254.385 66.155 254.919 66.155C255.454 66.155 255.966 65.9428 256.344 65.5649C256.722 65.1871 256.934 64.6746 256.934 64.1403C256.934 63.6059 256.722 63.0935 256.344 62.7156C255.966 62.3378 255.454 62.1255 254.919 62.1255Z" fill="white"/>
<path d="M257.518 61.6923C257.524 61.9082 257.561 62.122 257.629 62.327C257.794 62.8055 258.134 63.204 258.58 63.4433C259.027 63.6825 259.547 63.7449 260.037 63.6181C260.527 63.4913 260.951 63.1845 261.225 62.7589C261.5 62.3332 261.604 61.8199 261.517 61.321C261.429 60.8222 261.158 60.3744 260.756 60.0669C260.353 59.7594 259.85 59.6146 259.346 59.6614C258.842 59.7082 258.374 59.9432 258.035 60.3195C257.696 60.6959 257.512 61.186 257.518 61.6923V61.6923Z" fill="white"/>
<path d="M261.547 58.7608C261.545 59.0964 261.632 59.4264 261.799 59.7178C262.036 60.1476 262.423 60.4757 262.886 60.6404C263.348 60.8051 263.855 60.7951 264.311 60.6123C264.767 60.4295 265.14 60.0864 265.361 59.6476C265.581 59.2089 265.634 58.7045 265.509 58.2295C265.384 57.7545 265.09 57.3416 264.682 57.0683C264.274 56.795 263.78 56.6801 263.293 56.7454C262.807 56.8107 262.361 57.0515 262.039 57.4226C261.717 57.7938 261.542 58.2697 261.547 58.7608Z" fill="white"/>
<path d="M265.566 55.5473C265.568 55.9036 265.669 56.2522 265.858 56.5547C266.084 56.9281 266.425 57.2179 266.831 57.3804C267.236 57.5429 267.683 57.5693 268.105 57.4556C268.526 57.342 268.899 57.0944 269.168 56.7502C269.437 56.4061 269.586 55.9839 269.594 55.5473C269.594 55.2198 269.514 54.8974 269.362 54.6077C269.209 54.3181 268.988 54.0701 268.718 53.8851C268.415 53.6778 268.062 53.5572 267.696 53.536C267.33 53.5149 266.965 53.5941 266.641 53.7652C266.316 53.9362 266.045 54.1926 265.855 54.5066C265.666 54.8207 265.566 55.1805 265.566 55.5473Z" fill="white"/>
<path d="M268.98 51.4271C268.98 51.9614 269.192 52.4739 269.57 52.8517C269.948 53.2296 270.46 53.4418 270.994 53.4418C271.404 53.4378 271.803 53.3086 272.138 53.0717C272.473 52.8347 272.727 52.5012 272.867 52.1157C273.008 51.7302 273.027 51.3111 272.922 50.9144C272.818 50.5178 272.595 50.1624 272.283 49.8958C271.924 49.5882 271.467 49.417 270.994 49.4123C270.46 49.4123 269.948 49.6246 269.57 50.0024C269.192 50.3802 268.98 50.8927 268.98 51.4271Z" fill="white"/>
<path d="M272.142 47.4479C272.143 47.7581 272.215 48.0641 272.353 48.3419C272.491 48.6197 272.691 48.8619 272.938 49.0496C273.285 49.3148 273.71 49.4598 274.147 49.4627C274.681 49.4627 275.193 49.2504 275.571 48.8725C275.949 48.4947 276.161 47.9822 276.161 47.4479C276.161 46.9135 275.949 46.4011 275.571 46.0232C275.193 45.6454 274.681 45.4331 274.147 45.4331C273.614 45.4358 273.104 45.6492 272.729 46.0268C272.353 46.4043 272.142 46.9153 272.142 47.4479Z" fill="white"/>
<path d="M275.164 43.4284C275.173 43.7731 275.27 44.1098 275.447 44.4061C275.623 44.7024 275.872 44.9485 276.171 45.1208C276.473 45.3125 276.821 45.4203 277.178 45.4331C277.58 45.4335 277.973 45.3138 278.306 45.0893C278.639 44.8647 278.898 44.5457 279.048 44.1732C279.199 43.8006 279.234 43.3916 279.151 42.9986C279.067 42.6056 278.868 42.2466 278.578 41.9677C278.202 41.6053 277.7 41.403 277.178 41.4036C276.913 41.4036 276.65 41.456 276.405 41.5579C276.16 41.6598 275.938 41.8091 275.75 41.9972C275.563 42.1854 275.415 42.4087 275.314 42.6543C275.214 42.8999 275.163 43.163 275.164 43.4284Z" fill="white"/>
<path d="M278.659 39.7414C278.651 40.0967 278.738 40.4477 278.91 40.7587C279.082 41.0698 279.333 41.3297 279.638 41.5123C279.943 41.6948 280.291 41.7934 280.646 41.7981C281.002 41.8028 281.352 41.7133 281.662 41.5389C281.971 41.3644 282.229 41.1112 282.409 40.8048C282.589 40.4984 282.685 40.1498 282.687 39.7944C282.689 39.439 282.597 39.0894 282.42 38.7811C282.243 38.4727 281.988 38.2167 281.68 38.0389C281.377 37.8507 281.03 37.7465 280.673 37.7367C280.141 37.7367 279.63 37.9476 279.252 38.3232C278.875 38.6989 278.662 39.2088 278.659 39.7414V39.7414Z" fill="white"/>
<path d="M281.812 35.7723C281.812 36.3066 282.024 36.8191 282.402 37.1969C282.779 37.5748 283.292 37.7871 283.826 37.7871C284.36 37.7871 284.873 37.5748 285.25 37.1969C285.628 36.8191 285.84 36.3066 285.84 35.7723C285.84 35.2379 285.628 34.7255 285.25 34.3476C284.873 33.9698 284.36 33.7575 283.826 33.7575C283.292 33.7575 282.779 33.9698 282.402 34.3476C282.024 34.7255 281.812 35.2379 281.812 35.7723Z" fill="white"/>
<path d="M284.873 31.6924C284.874 32.0172 284.953 32.3371 285.104 32.6247C285.255 32.9124 285.473 33.1593 285.74 33.3445C286.076 33.5796 286.477 33.7062 286.888 33.7071C287.422 33.7071 287.934 33.4949 288.312 33.117C288.69 32.7392 288.902 32.2267 288.902 31.6924C288.899 31.2332 288.739 30.789 288.449 30.4331C288.187 30.1117 287.832 29.879 287.433 29.7668C287.034 29.6545 286.61 29.6682 286.219 29.8059C285.828 29.9437 285.489 30.1987 285.248 30.5364C285.007 30.874 284.876 31.2777 284.873 31.6924V31.6924Z" fill="white"/>
<path d="M288.469 28.3479C288.469 28.7463 288.587 29.1359 288.808 29.4672C289.03 29.7985 289.344 30.0568 289.713 30.2093C290.081 30.3618 290.486 30.4016 290.876 30.3239C291.267 30.2462 291.626 30.0543 291.908 29.7725C292.189 29.4907 292.381 29.1317 292.459 28.7409C292.537 28.3501 292.497 27.945 292.344 27.5768C292.192 27.2087 291.934 26.894 291.602 26.6726C291.271 26.4512 290.882 26.3331 290.483 26.3331C289.949 26.3331 289.437 26.5454 289.059 26.9232C288.681 27.301 288.469 27.8135 288.469 28.3479Z" fill="white"/>
<path d="M292.145 24.7414C292.145 25.1399 292.263 25.5294 292.485 25.8608C292.706 26.1921 293.021 26.4503 293.389 26.6028C293.757 26.7553 294.162 26.7952 294.553 26.7175C294.943 26.6397 295.302 26.4478 295.584 26.1661C295.866 25.8843 296.058 25.5253 296.135 25.1345C296.213 24.7436 296.173 24.3385 296.021 23.9704C295.868 23.6022 295.61 23.2876 295.279 23.0662C294.948 22.8448 294.558 22.7266 294.16 22.7266C293.625 22.7266 293.113 22.9389 292.735 23.3167C292.358 23.6946 292.145 24.2071 292.145 24.7414Z" fill="white"/>
<path d="M296.174 21.2558C296.174 21.7902 296.386 22.3027 296.764 22.6805C297.142 23.0583 297.654 23.2706 298.188 23.2706C298.723 23.2706 299.235 23.0583 299.613 22.6805C299.991 22.3027 300.203 21.7902 300.203 21.2558C300.201 20.9583 300.133 20.6648 300.004 20.3965C299.875 20.1283 299.688 19.892 299.457 19.7045C299.103 19.4032 298.653 19.2388 298.188 19.2411C297.654 19.2411 297.142 19.4533 296.764 19.8312C296.386 20.209 296.174 20.7215 296.174 21.2558Z" fill="white"/>
<path d="M300.213 17.5084C300.164 17.951 300.263 18.3974 300.495 18.7777C300.654 19.0403 300.871 19.263 301.129 19.4289C301.388 19.5947 301.681 19.6993 301.986 19.7347C302.251 19.7639 302.52 19.74 302.776 19.6644C303.032 19.5888 303.271 19.4629 303.478 19.2942C303.685 19.1254 303.857 18.9172 303.983 18.6815C304.109 18.4458 304.186 18.1874 304.211 17.9214C304.248 17.598 304.206 17.2705 304.088 16.967C303.971 16.6635 303.781 16.393 303.537 16.1786C303.26 15.9377 302.922 15.7769 302.561 15.7137C302.2 15.6505 301.828 15.6872 301.486 15.8199C301.143 15.9526 300.844 16.1763 300.62 16.4668C300.395 16.7572 300.255 17.1035 300.213 17.4681V17.5084Z" fill="white"/>
<path d="M306.226 12.1994C305.696 12.14 305.164 12.2932 304.746 12.6256C304.329 12.958 304.061 13.4424 304 13.9724C303.94 14.5027 304.094 15.0348 304.426 15.4522C304.758 15.8696 305.243 16.1381 305.773 16.1988C306.158 16.2404 306.547 16.17 306.893 15.9961C307.239 15.8223 307.528 15.5522 307.724 15.2184C307.921 14.8846 308.017 14.5011 308.002 14.1139C307.986 13.7268 307.859 13.3524 307.636 13.0356C307.473 12.8051 307.263 12.6116 307.02 12.4676C306.777 12.3235 306.506 12.2322 306.226 12.1994V12.1994Z" fill="white"/>
<path d="M309.872 8.76426C309.337 8.70414 308.801 8.85876 308.381 9.1941C307.961 9.52943 307.691 10.018 307.631 10.5524C307.571 11.0867 307.725 11.6231 308.061 12.0434C308.396 12.4638 308.884 12.7337 309.419 12.7938C309.949 12.8533 310.481 12.7 310.898 12.3676C311.315 12.0353 311.584 11.5509 311.644 11.0208C311.681 10.7576 311.66 10.4896 311.584 10.235C311.478 9.84692 311.258 9.49941 310.953 9.23728C310.648 8.97515 310.271 8.8104 309.872 8.76426V8.76426Z" fill="white"/>
<path d="M314.223 6.11483C313.812 6.07308 313.398 6.15859 313.038 6.3598C312.677 6.56101 312.387 6.8682 312.207 7.23976C312.027 7.61133 311.965 8.02932 312.03 8.43714C312.095 8.84496 312.284 9.2229 312.571 9.5198C312.891 9.8487 313.314 10.0584 313.77 10.1142C314.3 10.1736 314.832 10.0204 315.249 9.688C315.666 9.35561 315.935 8.87125 315.996 8.34116C316.032 7.997 315.977 7.64923 315.834 7.33377C315.697 7.00665 315.475 6.72165 315.192 6.50761C314.909 6.29357 314.575 6.15807 314.223 6.11483V6.11483Z" fill="white"/>
<path d="M318.836 3.69711L317.486 4.03962C317.077 4.31714 316.785 4.73527 316.664 5.21447C316.543 5.69368 316.603 6.20055 316.831 6.63868C316.954 6.89365 317.13 7.11981 317.346 7.3024C317.563 7.48499 317.815 7.61991 318.087 7.69836C318.359 7.77681 318.645 7.79704 318.925 7.75771C319.205 7.71839 319.474 7.6204 319.714 7.47013C319.954 7.31987 320.16 7.1207 320.318 6.88563C320.475 6.65055 320.582 6.38484 320.63 6.10583C320.678 5.82682 320.667 5.54076 320.598 5.26633C320.528 4.99189 320.401 4.73523 320.226 4.51309C320.063 4.28871 319.855 4.10042 319.616 3.96001C319.377 3.8196 319.111 3.7301 318.836 3.69711V3.69711Z" fill="white"/>
<path d="M410.52 9.86232C410.318 9.48403 410 9.18019 409.613 8.99503C409.226 8.80987 408.791 8.75305 408.369 8.83285C407.948 8.91266 407.563 9.12491 407.27 9.43872C406.978 9.75253 406.793 10.1515 406.743 10.5776C406.699 11.0135 406.798 11.4521 407.025 11.8267C407.18 12.0999 407.396 12.3333 407.656 12.5082C407.917 12.6831 408.215 12.7947 408.526 12.8341C409.056 12.8936 409.588 12.7403 410.005 12.4079C410.423 12.0756 410.691 11.5912 410.752 11.0611C410.8 10.6472 410.72 10.2283 410.52 9.86232V9.86232Z" fill="white"/>
<path d="M404.477 11.2726C403.947 11.2132 403.415 11.3664 402.998 11.6988C402.58 12.0312 402.312 12.5156 402.251 13.0456C402.222 13.2817 402.239 13.5213 402.301 13.7508C402.48 14.2544 402.852 14.6663 403.335 14.8959C403.574 15.0095 403.833 15.075 404.097 15.0885C404.361 15.1021 404.626 15.0634 404.875 14.9748C405.124 14.8862 405.354 14.7493 405.55 14.572C405.746 14.3946 405.906 14.1804 406.02 13.9413C406.133 13.7023 406.199 13.4433 406.212 13.179C406.226 12.9147 406.187 12.6503 406.099 12.4009C405.948 12.0894 405.72 11.8219 405.436 11.6243C405.152 11.4267 404.821 11.3056 404.477 11.2726Z" fill="white"/>
<path d="M399.149 12.1994C398.619 12.14 398.087 12.2932 397.669 12.6256C397.252 12.958 396.984 13.4424 396.923 13.9724C396.918 14.0462 396.918 14.1203 396.923 14.1941C396.892 14.7284 397.075 15.2531 397.431 15.6527C397.787 16.0522 398.287 16.294 398.822 16.3247C399.356 16.3554 399.88 16.1726 400.28 15.8165C400.679 15.4604 400.921 14.9601 400.952 14.4258C400.972 14.272 400.972 14.1162 400.952 13.9624C400.897 13.5072 400.688 13.0844 400.36 12.7639C400.033 12.4434 399.605 12.2443 399.149 12.1994Z" fill="white"/>
<path d="M393.589 11.2726C393.09 11.2203 392.588 11.3566 392.184 11.6548C391.78 11.953 391.501 12.3916 391.404 12.8845C391.404 12.9449 391.404 12.9953 391.404 13.0658C391.36 13.548 391.492 14.0297 391.774 14.4229C392.056 14.8161 392.471 15.0944 392.942 15.2069C393.413 15.3194 393.908 15.2586 394.338 15.0356C394.767 14.8127 395.102 14.4424 395.281 13.9926C395.342 13.8405 395.382 13.6814 395.402 13.5191C395.434 13.2519 395.413 12.981 395.338 12.7224C395.264 12.4638 395.139 12.2226 394.97 12.0133C394.801 11.8039 394.592 11.6304 394.354 11.5032C394.117 11.376 393.857 11.2976 393.589 11.2726Z" fill="white"/>
<path d="M388.241 8.76426C387.725 8.70612 387.206 8.84973 386.793 9.1651C386.38 9.48048 386.105 9.94321 386.025 10.4567C386.025 10.4567 386.025 10.507 386.025 10.5373C385.982 10.9594 386.073 11.3846 386.285 11.7521C386.497 12.1196 386.82 12.4107 387.207 12.5838C387.595 12.7569 388.027 12.8032 388.442 12.7161C388.858 12.629 389.235 12.4129 389.52 12.0987C389.802 11.7928 389.979 11.4043 390.024 10.9906C390.053 10.7273 390.03 10.4608 389.957 10.2063C389.883 9.9518 389.76 9.71437 389.594 9.50758C389.429 9.30078 389.224 9.12869 388.992 9.00114C388.76 8.87359 388.504 8.79309 388.241 8.76426V8.76426Z" fill="white"/>
<path d="M383.366 6.30624C382.878 6.25388 382.388 6.3816 381.987 6.66542C381.586 6.94924 381.303 7.36961 381.191 7.84754C381.187 7.9113 381.187 7.97519 381.191 8.03895C381.144 8.45635 381.228 8.87805 381.432 9.24507C381.637 9.61208 381.95 9.90606 382.33 10.0859C382.71 10.2657 383.136 10.3224 383.549 10.248C383.962 10.1736 384.342 9.9718 384.635 9.67091C384.942 9.34701 385.14 8.93464 385.199 8.49227C385.223 8.22828 385.194 7.96224 385.115 7.7094C385.035 7.45656 384.907 7.22189 384.736 7.01882C384.566 6.81575 384.357 6.64829 384.122 6.52601C383.887 6.40373 383.63 6.32905 383.366 6.30624V6.30624Z" fill="white"/>
<path d="M378.31 4.19072C377.844 4.0454 377.34 4.07462 376.894 4.27291C376.447 4.47121 376.088 4.82508 375.883 5.26862L375.792 5.46003C375.639 5.94249 375.673 6.46502 375.887 6.92364C376.101 7.38226 376.481 7.74336 376.949 7.9351C377.417 8.12683 377.941 8.13515 378.415 7.95839C378.89 7.78164 379.28 7.43276 379.509 6.98118C379.509 6.90059 379.589 6.82 379.619 6.73941C379.702 6.48613 379.734 6.21891 379.713 5.95324C379.692 5.68756 379.619 5.4287 379.497 5.19166C379.375 4.95461 379.207 4.74408 379.004 4.57227C378.8 4.40045 378.564 4.27077 378.31 4.19072V4.19072Z" fill="white"/>
<path d="M373.053 1.80322C372.57 1.64553 372.045 1.67625 371.584 1.88922C371.122 2.1022 370.758 2.48168 370.565 2.95164C370.565 2.95164 370.565 3.03223 370.515 3.0826C370.382 3.56209 370.431 4.07372 370.653 4.51898C370.875 4.96424 371.254 5.31162 371.717 5.49424C372.179 5.67685 372.693 5.68178 373.159 5.50807C373.625 5.33436 374.011 4.9943 374.241 4.55338L374.332 4.35191C374.415 4.10056 374.449 3.83521 374.43 3.57102C374.41 3.30683 374.34 3.049 374.221 2.81227C374.102 2.57555 373.938 2.36458 373.737 2.19143C373.537 2.01829 373.304 1.88637 373.053 1.80322V1.80322Z" fill="white"/>
<path d="M364.653 0.453323L364.532 0.624579C364.452 0.754241 364.388 0.892877 364.34 1.03761C364.24 1.29239 364.192 1.56499 364.201 1.83877C364.209 2.11255 364.273 2.38175 364.389 2.62992C364.505 2.87809 364.67 3.10002 364.875 3.28215C365.079 3.46428 365.319 3.60278 365.579 3.68919C365.839 3.7756 366.113 3.80811 366.386 3.78472C366.659 3.76134 366.924 3.68255 367.166 3.55318C367.407 3.4238 367.62 3.24656 367.79 3.03229C367.961 2.81801 368.086 2.57119 368.158 2.30691C368.314 1.78097 368.263 1.21537 368.017 0.725318C366.909 0.624579 365.811 0.533914 364.653 0.453323Z" fill="white"/>
<path d="M359.979 1.57152C360.483 1.73816 361.032 1.69938 361.507 1.46362C361.982 1.22786 362.345 0.814148 362.518 0.312288C361.248 0.241771 359.959 0.181328 358.66 0.130959C358.74 0.463295 358.903 0.769886 359.133 1.02189C359.364 1.2739 359.655 1.46304 359.979 1.57152V1.57152Z" fill="white"/>
<path d="M353.795 1.06783C354.255 1.22107 354.754 1.20357 355.202 1.01856C355.649 0.833547 356.015 0.493404 356.233 0.0604489C355.034 0.0604489 353.825 0.0100784 352.607 0.0100784C352.723 0.257855 352.888 0.479424 353.092 0.661278C353.297 0.843132 353.536 0.981462 353.795 1.06783V1.06783Z" fill="white"/>
<path d="M348.87 0.795831C349.278 0.929197 349.718 0.928805 350.125 0.794715C350.533 0.660624 350.887 0.399841 351.136 0.0503654C350.059 0.0503654 348.981 0.0503654 347.903 0.0503654C348.141 0.392908 348.478 0.653361 348.87 0.795831V0.795831Z" fill="white"/>
<path d="M343.935 0.79583C344.323 0.923852 344.741 0.930742 345.133 0.815587C345.525 0.700431 345.873 0.468678 346.13 0.151104C345.123 0.151104 344.116 0.231694 343.109 0.282063C343.34 0.516048 343.623 0.692094 343.935 0.79583V0.79583Z" fill="white"/>
<path d="M250.307 110.117C250.055 110.034 249.79 110.001 249.526 110.02C249.262 110.039 249.004 110.11 248.767 110.229C248.531 110.347 248.32 110.512 248.147 110.712C247.973 110.913 247.842 111.145 247.758 111.397C247.754 111.417 247.754 111.437 247.758 111.457C247.649 111.949 247.728 112.465 247.979 112.901C248.231 113.338 248.637 113.665 249.118 113.817C249.599 113.968 250.119 113.934 250.576 113.721C251.032 113.508 251.393 113.132 251.586 112.666C251.641 112.504 251.672 112.334 251.676 112.162C251.706 111.718 251.588 111.276 251.34 110.906C251.092 110.536 250.729 110.259 250.307 110.117V110.117Z" fill="white"/>
<path d="M267.046 36.5177C267.073 36.249 267.042 35.9776 266.955 35.7219C266.583 36.1752 266.22 36.6386 265.858 37.092C265.495 37.5453 265.263 37.9079 264.961 38.3109C265.471 38.3318 265.97 38.1583 266.357 37.8255C266.744 37.4926 266.99 37.0252 267.046 36.5177V36.5177Z" fill="white"/>
<path d="M270.974 32.9012C271.022 32.4018 270.882 31.9025 270.581 31.501C270.138 31.9946 269.695 32.5083 269.262 32.9717C268.829 33.4351 268.436 33.9791 268.023 34.4425C268.252 34.5769 268.505 34.6627 268.768 34.6944C269.298 34.7479 269.828 34.5893 270.241 34.2533C270.655 33.9172 270.918 33.4311 270.974 32.9012Z" fill="white"/>
<path d="M274.429 29.5265C274.459 29.2524 274.432 28.9752 274.351 28.7118C274.269 28.4484 274.135 28.2045 273.955 27.9953C273.939 27.9988 273.922 27.9988 273.905 27.9953L272.968 28.9221C272.354 29.5466 271.76 30.1712 271.176 30.8059C271.458 31.0294 271.795 31.1733 272.151 31.2225C272.508 31.2716 272.871 31.2244 273.203 31.0855C273.535 30.9467 273.824 30.7214 274.04 30.433C274.255 30.1446 274.39 29.8038 274.429 29.4459V29.5265Z" fill="white"/>
<path d="M277.843 25.91C277.881 25.484 277.782 25.0571 277.561 24.691C277.249 24.953 276.947 25.225 276.645 25.4969C275.97 26.1014 275.335 26.726 274.691 27.3405C274.977 27.5399 275.311 27.6614 275.658 27.6931C276.006 27.7248 276.356 27.6657 276.673 27.5214C276.991 27.3772 277.266 27.1529 277.471 26.8704C277.676 26.5879 277.804 26.2569 277.843 25.91V25.91Z" fill="white"/>
<path d="M280.663 22.1726V22.0718C279.898 22.6863 279.152 23.321 278.417 23.9556C278.682 23.9879 278.951 23.9672 279.207 23.8948C279.464 23.8223 279.704 23.6996 279.913 23.5337C280.122 23.3678 280.296 23.1621 280.425 22.9284C280.553 22.6948 280.635 22.4379 280.663 22.1726V22.1726Z" fill="white"/>
<path d="M413.743 38.5728C413.555 38.7678 413.33 38.9229 413.081 39.0289C412.832 39.1348 412.564 39.1894 412.293 39.1894C412.022 39.1894 411.754 39.1348 411.505 39.0289C411.256 38.9229 411.03 38.7678 410.842 38.5728L410.46 38.8952C410.645 39.1996 410.749 39.5465 410.762 39.9026C410.767 39.9999 410.767 40.0974 410.762 40.1947L413.783 39.3384L413.743 38.5728Z" fill="#9A6334"/>
<path d="M250.991 78.6869C251.521 78.6457 252.012 78.3971 252.359 77.9953C252.706 77.5935 252.881 77.0709 252.845 76.5412C252.839 76.4423 252.822 76.3443 252.794 76.2491C252.666 75.7726 252.367 75.3599 251.954 75.0893C251.541 74.8187 251.044 74.709 250.555 74.781C250.067 74.8531 249.623 75.1019 249.306 75.4802C248.989 75.8585 248.822 76.34 248.836 76.8333C248.836 76.8333 248.836 76.8333 248.836 76.8938C248.892 77.4141 249.148 77.8922 249.551 78.2269C249.953 78.5616 250.47 78.7266 250.991 78.6869Z" fill="#FFD437"/>
<path d="M255.483 77.1255C255.882 77.1255 256.271 77.0073 256.603 76.7859C256.934 76.5645 257.192 76.2499 257.345 75.8817C257.497 75.5136 257.537 75.1085 257.459 74.7177C257.381 74.3268 257.19 73.9678 256.908 73.6861C256.626 73.4043 256.267 73.2124 255.877 73.1347C255.486 73.0569 255.081 73.0968 254.713 73.2493C254.345 73.4018 254.03 73.66 253.809 73.9914C253.587 74.3227 253.469 74.7122 253.469 75.1107C253.474 75.3997 253.539 75.6845 253.66 75.9468C253.82 76.2969 254.077 76.5939 254.4 76.8028C254.723 77.0116 255.099 77.1236 255.483 77.1255V77.1255Z" fill="#FFD437"/>
<path d="M262.07 72.6628C262.07 72.1284 261.858 71.6159 261.481 71.2381C261.103 70.8603 260.59 70.648 260.056 70.648C259.522 70.648 259.01 70.8603 258.632 71.2381C258.254 71.6159 258.042 72.1284 258.042 72.6628C258.043 72.951 258.105 73.2358 258.223 73.4989C258.417 73.9119 258.745 74.2467 259.155 74.4487C259.564 74.6506 260.029 74.7077 260.475 74.6106C260.921 74.5135 261.32 74.2679 261.608 73.9141C261.896 73.5602 262.056 73.119 262.06 72.6628H262.07Z" fill="#FFD437"/>
<path d="M265.686 68.4821C265.499 68.2478 265.261 68.0584 264.991 67.9277C264.721 67.797 264.425 67.7283 264.125 67.7266C263.591 67.7266 263.079 67.9388 262.701 68.3167C262.323 68.6945 262.111 69.207 262.111 69.7414C262.113 70.1319 262.228 70.5133 262.443 70.8394C262.688 71.1838 263.034 71.4427 263.434 71.5794C263.833 71.7161 264.266 71.7238 264.67 71.6013C265.074 71.4788 265.43 71.2323 265.686 70.8968C265.943 70.5612 266.087 70.1535 266.099 69.7313C266.11 69.2797 265.964 68.8383 265.686 68.4821V68.4821Z" fill="#FFD437"/>
<path d="M268.114 64.513C267.715 64.513 267.326 64.6312 266.995 64.8526C266.663 65.0739 266.405 65.3886 266.253 65.7568C266.1 66.1249 266.06 66.53 266.138 66.9209C266.216 67.3117 266.408 67.6707 266.689 67.9525C266.971 68.2342 267.33 68.4261 267.721 68.5039C268.112 68.5816 268.517 68.5417 268.885 68.3892C269.253 68.2367 269.567 67.9785 269.789 67.6471C270.01 67.3158 270.128 66.9263 270.128 66.5278C270.124 66.0592 269.956 65.6068 269.655 65.2484C269.467 65.0204 269.232 64.8364 268.966 64.7093C268.7 64.5823 268.409 64.5152 268.114 64.513V64.513Z" fill="#FFD437"/>
<path d="M274.157 63.0724C274.157 62.5381 273.944 62.0256 273.567 61.6478C273.189 61.2699 272.677 61.0577 272.142 61.0577C271.608 61.0577 271.096 61.2699 270.718 61.6478C270.34 62.0256 270.128 62.5381 270.128 63.0724C270.131 63.5587 270.31 64.0274 270.632 64.3921C270.901 64.6982 271.258 64.9151 271.654 65.0141C272.05 65.1131 272.466 65.0895 272.848 64.9464C273.231 64.8034 273.56 64.5476 273.794 64.2129C274.028 63.8783 274.154 63.4806 274.157 63.0724Z" fill="#FFD437"/>
<path d="M275.758 61.5412C276.225 61.5408 276.676 61.3787 277.036 61.0823C277.397 60.786 277.643 60.3739 277.733 59.9163C277.823 59.4587 277.752 58.984 277.531 58.5731C277.311 58.1622 276.954 57.8406 276.523 57.6632C276.092 57.4857 275.612 57.4634 275.166 57.6001C274.721 57.7368 274.336 58.0239 274.078 58.4126C273.82 58.8012 273.705 59.2673 273.753 59.7313C273.8 60.1953 274.007 60.6285 274.338 60.9569C274.716 61.3316 275.226 61.5416 275.758 61.5412V61.5412Z" fill="#FFD437"/>
<path d="M278.659 53.4922C278.125 53.4922 277.612 53.7045 277.235 54.0823C276.857 54.4602 276.645 54.9726 276.645 55.507C276.648 55.8735 276.75 56.2323 276.942 56.5447C277.134 56.8572 277.407 57.1114 277.732 57.28C278.016 57.4362 278.335 57.5193 278.659 57.5217C279.193 57.5217 279.706 57.3095 280.083 56.9316C280.461 56.5538 280.673 56.0413 280.673 55.507C280.673 54.9726 280.461 54.4602 280.083 54.0823C279.706 53.7045 279.193 53.4922 278.659 53.4922Z" fill="#FFD437"/>
<path d="M282.94 49.8253C282.608 49.5879 282.209 49.4611 281.801 49.4626C281.368 49.474 280.95 49.625 280.609 49.8932C280.268 50.1613 280.023 50.5323 279.91 50.9511C279.796 51.3698 279.821 51.8138 279.981 52.2172C280.14 52.6206 280.425 52.9617 280.794 53.19C281.097 53.3781 281.445 53.4824 281.801 53.4922C282.229 53.4891 282.644 53.3501 282.987 53.0953C283.33 52.8405 283.584 52.4831 283.71 52.0748C283.837 51.6666 283.831 51.2286 283.692 50.8242C283.554 50.4198 283.29 50.07 282.94 49.8253V49.8253Z" fill="#FFD437"/>
<path d="M285.588 45.5741C285.36 45.4875 285.118 45.4431 284.873 45.4432C284.472 45.4467 284.081 45.57 283.75 45.7973C283.419 46.0246 283.164 46.3456 283.017 46.719C282.87 47.0924 282.837 47.5013 282.924 47.8932C283.011 48.2851 283.213 48.6422 283.504 48.9187C283.875 49.2665 284.364 49.4609 284.873 49.4627C285.34 49.4569 285.79 49.2892 286.147 48.9882C286.504 48.6872 286.745 48.2717 286.83 47.8125C286.914 47.3534 286.836 46.8791 286.61 46.4709C286.384 46.0626 286.023 45.7457 285.588 45.5741Z" fill="#FFD437"/>
<path d="M288.993 40.4869C288.721 40.3486 288.421 40.2762 288.116 40.2753C287.582 40.2753 287.07 40.4876 286.692 40.8654C286.314 41.2433 286.102 41.7557 286.102 42.2901C286.102 42.8244 286.314 43.3369 286.692 43.7147C287.07 44.0926 287.582 44.3048 288.116 44.3048C288.569 44.2999 289.006 44.143 289.358 43.8593C289.71 43.5756 289.957 43.1817 290.058 42.741C290.159 42.3002 290.109 41.8382 289.916 41.4294C289.722 41.0205 289.397 40.6885 288.993 40.4869V40.4869Z" fill="#FFD437"/>
<path d="M292.619 36.1349C292.268 35.8677 291.84 35.7226 291.4 35.7219C290.866 35.7219 290.353 35.9342 289.976 36.312C289.598 36.6899 289.385 37.2023 289.385 37.7367C289.385 38.271 289.598 38.7835 289.976 39.1613C290.353 39.5392 290.866 39.7515 291.4 39.7515C291.818 39.7481 292.226 39.6144 292.565 39.3689C292.904 39.1235 293.158 38.7785 293.292 38.3819C293.426 37.9853 293.433 37.5567 293.313 37.1559C293.192 36.755 292.949 36.4017 292.619 36.145V36.1349Z" fill="#FFD437"/>
<path d="M295.429 31.6924C294.894 31.6924 294.382 31.9046 294.004 32.2825C293.627 32.6603 293.414 33.1728 293.414 33.7071C293.418 34.1663 293.577 34.6105 293.868 34.9664C294.055 35.2006 294.293 35.3901 294.563 35.5208C294.833 35.6515 295.129 35.7202 295.429 35.7219C295.585 35.7173 295.74 35.697 295.892 35.6615C296.386 35.0772 296.899 34.4929 297.413 33.9187C297.418 33.8483 297.418 33.7776 297.413 33.7071C297.408 33.2969 297.282 32.8973 297.05 32.5587C296.868 32.296 296.626 32.0804 296.344 31.9297C296.062 31.7791 295.748 31.6977 295.429 31.6924Z" fill="#FFD437"/>
<path d="M300.485 28.3478C299.95 28.3478 299.438 28.5601 299.06 28.938C298.683 29.3158 298.47 29.8283 298.47 30.3626C298.468 30.76 298.584 31.149 298.803 31.4808C298.937 31.6724 299.1 31.8422 299.286 31.9845C299.931 31.3398 300.606 30.7051 301.301 30.0806L302.177 29.2948C301.997 29.0073 301.748 28.7698 301.452 28.6043C301.156 28.4388 300.824 28.3506 300.485 28.3478Z" fill="#FFD437"/>
<path d="M396.168 21.8301C395.769 21.8301 395.38 21.9482 395.049 22.1696C394.717 22.391 394.459 22.7057 394.307 23.0738C394.154 23.442 394.114 23.8471 394.192 24.2379C394.27 24.6287 394.462 24.9877 394.743 25.2695C395.025 25.5513 395.384 25.7432 395.775 25.8209C396.165 25.8986 396.57 25.8587 396.939 25.7062C397.307 25.5538 397.621 25.2955 397.843 24.9642C398.064 24.6329 398.182 24.2433 398.182 23.8448C398.177 23.6788 398.157 23.5135 398.122 23.3512C398.012 22.9163 397.76 22.5305 397.406 22.2549C397.052 21.9794 396.616 21.8299 396.168 21.8301V21.8301Z" fill="#FFD437"/>
<path d="M400.448 19.2411C400.05 19.2411 399.66 19.3592 399.329 19.5806C398.998 19.802 398.74 20.1167 398.587 20.4848C398.435 20.853 398.395 21.2581 398.473 21.6489C398.55 22.0397 398.742 22.3987 399.024 22.6805C399.306 22.9623 399.664 23.1542 400.055 23.2319C400.446 23.3096 400.851 23.2697 401.219 23.1173C401.587 22.9648 401.902 22.7065 402.123 22.3752C402.344 22.0439 402.463 21.6543 402.463 21.2558C402.468 20.9038 402.381 20.5565 402.211 20.2485C402.032 19.9395 401.775 19.6834 401.466 19.5064C401.156 19.3295 400.805 19.2379 400.448 19.2411Z" fill="#FFD437"/>
<path d="M406.391 17.3673C406.149 17.0138 405.8 16.7466 405.396 16.6047C404.992 16.4628 404.553 16.4535 404.143 16.5782C403.733 16.7029 403.373 16.955 403.116 17.298C402.86 17.6411 402.719 18.057 402.714 18.4855C402.714 19.0199 402.927 19.5324 403.304 19.9102C403.682 20.288 404.195 20.5003 404.729 20.5003C405.263 20.5003 405.775 20.288 406.153 19.9102C406.531 19.5324 406.743 19.0199 406.743 18.4855C406.743 18.0855 406.62 17.6952 406.391 17.3673V17.3673Z" fill="#FFD437"/>
<path d="M409.513 17.73C409.949 17.7311 410.373 17.5908 410.723 17.33C411.072 17.0693 411.327 16.7023 411.45 16.2841C411.574 15.8659 411.558 15.419 411.405 15.0106C411.253 14.6021 410.972 14.2542 410.605 14.0189C410.238 13.7837 409.805 13.6739 409.37 13.7059C408.935 13.738 408.523 13.9102 408.194 14.1967C407.866 14.4833 407.639 14.8687 407.548 15.295C407.457 15.7214 407.507 16.1658 407.69 16.5614C407.851 16.9096 408.108 17.2045 408.431 17.4115C408.754 17.6185 409.129 17.729 409.513 17.73Z" fill="#FFD437"/>
<path d="M412.293 13.2673C412.293 13.5191 412.341 13.7685 412.434 14.0027C412.547 14.2874 412.724 14.5424 412.951 14.7484C413.178 14.9544 413.449 15.1059 413.743 15.1914V11.3432C413.326 11.4648 412.96 11.7177 412.699 12.0645C412.437 12.4112 412.295 12.8331 412.293 13.2673V13.2673Z" fill="#FFD437"/>
<path d="M247.658 93.969C247.199 93.9722 246.754 94.1321 246.399 94.4223V95.5204C246.399 96.1953 246.399 96.8501 246.399 97.5351C246.661 97.7581 246.976 97.9101 247.314 97.9765C247.652 98.0428 248.002 98.0215 248.329 97.9144C248.656 97.8072 248.951 97.618 249.184 97.3646C249.417 97.1113 249.582 96.8024 249.662 96.4673C249.694 96.3183 249.711 96.1664 249.712 96.014C249.716 95.7434 249.666 95.4748 249.564 95.2242C249.462 94.9736 249.311 94.746 249.119 94.5552C248.927 94.3643 248.699 94.2141 248.448 94.1134C248.197 94.0126 247.928 93.9635 247.658 93.969V93.969Z" fill="#FFD437"/>
<path d="M252.291 94.795C251.796 94.7915 251.317 94.9702 250.945 95.2972C250.574 95.6242 250.336 96.0766 250.276 96.568C250.271 96.6485 250.271 96.7293 250.276 96.8098C250.232 97.3442 250.402 97.8741 250.749 98.2831C251.095 98.6922 251.59 98.9467 252.124 98.9908C252.659 99.0349 253.189 98.8649 253.598 98.5182C254.006 98.1716 254.261 97.6766 254.305 97.1422C254.315 97.0317 254.315 96.9204 254.305 96.8098C254.305 96.2755 254.093 95.763 253.715 95.3851C253.337 95.0073 252.825 94.795 252.291 94.795Z" fill="#FFD437"/>
<path d="M257.145 95.4901C256.652 95.4863 256.174 95.6636 255.803 95.9886C255.432 96.3135 255.193 96.7635 255.131 97.2531C255.125 97.3369 255.125 97.4211 255.131 97.5049C255.123 98.0393 255.328 98.5549 255.7 98.9384C256.072 99.3219 256.581 99.5419 257.115 99.5499C257.649 99.5579 258.165 99.3533 258.548 98.9812C258.932 98.609 259.152 98.0997 259.16 97.5654C259.164 97.5455 259.164 97.5248 259.16 97.5049C259.16 96.9706 258.948 96.4581 258.57 96.0803C258.192 95.7024 257.68 95.4901 257.145 95.4901Z" fill="#FFD437"/>
<path d="M262.695 95.4901C262.161 95.4901 261.648 95.7024 261.271 96.0803C260.893 96.4581 260.681 96.9706 260.681 97.5049C260.681 98.0393 260.893 98.5517 261.271 98.9296C261.648 99.3074 262.161 99.5197 262.695 99.5197C263.229 99.5197 263.742 99.3074 264.119 98.9296C264.497 98.5517 264.709 98.0393 264.709 97.5049C264.707 97.3093 264.673 97.1154 264.609 96.9307C264.486 96.5174 264.234 96.1544 263.889 95.8951C263.545 95.6358 263.126 95.4938 262.695 95.4901Z" fill="#FFD437"/>
<path d="M268.114 93.969C267.715 93.969 267.326 94.0872 266.995 94.3085C266.663 94.5299 266.405 94.8446 266.253 95.2127C266.1 95.5809 266.06 95.986 266.138 96.3768C266.216 96.7677 266.408 97.1267 266.689 97.4084C266.971 97.6902 267.33 97.8821 267.721 97.9598C268.112 98.0376 268.517 97.9977 268.885 97.8452C269.253 97.6927 269.567 97.4344 269.789 97.1031C270.01 96.7718 270.128 96.3822 270.128 95.9838C270.121 95.6281 270.021 95.2805 269.836 94.9764C269.661 94.6733 269.41 94.4211 269.108 94.2444C268.806 94.0678 268.464 93.9729 268.114 93.969Z" fill="#FFD437"/>
<path d="M273.089 91.4606C272.691 91.4606 272.301 91.5788 271.97 91.8001C271.639 92.0215 271.381 92.3362 271.228 92.7043C271.076 93.0725 271.036 93.4776 271.114 93.8684C271.191 94.2593 271.383 94.6183 271.665 94.9C271.947 95.1818 272.305 95.3737 272.696 95.4514C273.087 95.5292 273.492 95.4893 273.86 95.3368C274.228 95.1843 274.543 94.926 274.764 94.5947C274.985 94.2634 275.104 93.8739 275.104 93.4754C275.104 92.941 274.891 92.4285 274.514 92.0507C274.136 91.6729 273.623 91.4606 273.089 91.4606Z" fill="#FFD437"/>
<path d="M279.455 89.0328C279.217 88.6717 278.869 88.3967 278.463 88.2486C278.057 88.1004 277.614 88.0869 277.199 88.21C276.785 88.3331 276.421 88.5863 276.161 88.9323C275.902 89.2782 275.761 89.6984 275.758 90.1308C275.758 90.5496 275.888 90.9581 276.131 91.2994C276.368 91.6293 276.7 91.8797 277.083 92.0176C277.465 92.1554 277.88 92.1744 278.273 92.072C278.667 91.9695 279.02 91.7505 279.286 91.4436C279.553 91.1367 279.72 90.7563 279.767 90.3525C279.767 90.282 279.767 90.2114 279.767 90.1308C279.782 89.9869 279.782 89.8416 279.767 89.6977C279.701 89.4599 279.596 89.235 279.455 89.0328Z" fill="#FFD437"/>
<path d="M408.748 37.9382C408.361 37.9406 407.984 38.054 407.66 38.265C407.337 38.4759 407.081 38.7755 406.922 39.128C406.764 39.4804 406.711 39.871 406.768 40.253C406.826 40.635 406.992 40.9925 407.247 41.2827L410.732 40.2753C410.737 40.178 410.737 40.0805 410.732 39.9832C410.719 39.6271 410.615 39.2802 410.43 38.9758C410.262 38.6729 410.019 38.4182 409.725 38.2365C409.43 38.0547 409.093 37.952 408.748 37.9382Z" fill="#FFD437"/>
<path d="M410.278 37.1826C410.28 37.7014 410.482 38.1993 410.842 38.5728C411.03 38.7678 411.256 38.9229 411.505 39.0289C411.754 39.1348 412.022 39.1894 412.293 39.1894C412.563 39.1894 412.831 39.1348 413.081 39.0289C413.33 38.9229 413.555 38.7678 413.743 38.5728V35.7824C413.464 35.4931 413.105 35.2937 412.712 35.21C412.32 35.1263 411.911 35.162 411.538 35.3125C411.166 35.4631 410.847 35.7216 410.622 36.0548C410.398 36.388 410.278 36.7808 410.278 37.1826V37.1826Z" fill="#FFD437"/>
<path d="M539.047 5.57085C539.527 5.75999 539.915 6.12553 540.133 6.59231C540.351 7.05909 540.382 7.59166 540.219 8.08054C540.057 8.56942 539.713 8.97746 539.259 9.22079C538.805 9.46413 538.275 9.52427 537.778 9.38884C537.564 9.31395 537.364 9.2051 537.184 9.06648L536.812 9.81195C542.975 8.99596 547.82 8.48219 551.204 8.16991C551.298 7.70797 551.551 7.29369 551.92 6.99918C552.288 6.70467 552.747 6.54858 553.219 6.55809C553.343 6.54772 553.467 6.54772 553.591 6.55809H553.652L553.954 6.64875C554.171 6.73905 554.372 6.86503 554.548 7.02149V7.02149L555.555 6.0141C555.459 5.86754 555.385 5.70813 555.334 5.54063C555.329 5.52075 555.329 5.50006 555.334 5.48018C555.281 5.3071 555.254 5.12722 555.253 4.94627C555.256 4.49085 555.412 4.04971 555.698 3.69479C555.983 3.33988 556.38 3.09213 556.824 2.99194V0.977169H555.132C555.132 0.977169 555.374 2.03492 553.198 3.08261C551.023 4.13029 542.119 3.86837 542.119 3.86837H539.752L538.937 5.49026L539.047 5.57085Z" fill="#030202"/>
<path d="M453.235 7.34384C453.19 6.80949 453.358 6.27898 453.704 5.86902C454.05 5.45906 454.544 5.20323 455.078 5.15781C455.612 5.11239 456.143 5.2811 456.553 5.62683C456.963 5.97256 457.218 6.46698 457.264 7.00133C457.828 6.82 458.422 6.66889 459.047 6.52786C459.041 6.44063 459.041 6.35316 459.047 6.26594C459.021 5.73159 459.209 5.20904 459.569 4.81325C459.929 4.41746 460.431 4.18084 460.965 4.15546C461.499 4.13008 462.022 4.31801 462.418 4.67791C462.813 5.0378 463.05 5.54018 463.075 6.07453C463.8 6.07453 464.556 6.07453 465.341 6.07453C465.364 5.54018 465.598 5.03674 465.992 4.67496C466.386 4.31317 466.907 4.12268 467.441 4.14539C467.976 4.1681 468.479 4.40215 468.841 4.79605C469.202 5.18995 469.393 5.71144 469.37 6.24579C469.381 6.33953 469.381 6.43412 469.37 6.52786C469.914 6.60845 470.458 6.69911 470.982 6.79985V6.74948C470.982 6.21513 471.194 5.70267 471.572 5.32482C471.949 4.94698 472.462 4.73471 472.996 4.73471C473.53 4.73471 474.043 4.94698 474.42 5.32482C474.798 5.70267 475.01 6.21513 475.01 6.74948C475.012 7.05004 474.943 7.34675 474.809 7.61584L476.229 7.99864C476.259 7.70131 476.355 7.41443 476.51 7.15879C476.665 6.90314 476.875 6.68513 477.124 6.52056C477.373 6.35599 477.656 6.24897 477.952 6.20727C478.248 6.16557 478.549 6.19023 478.835 6.27946C479.12 6.36869 479.382 6.52025 479.601 6.72317C479.82 6.92609 479.992 7.17528 480.103 7.45268C480.214 7.73008 480.262 8.02874 480.244 8.32703C480.225 8.62531 480.141 8.91575 479.996 9.17728L481.366 9.68098C481.548 9.40054 481.797 9.16989 482.091 9.00985C482.385 8.84981 482.713 8.76541 483.048 8.76425C483.582 8.76425 484.094 8.97653 484.472 9.35437C484.85 9.73221 485.062 10.2447 485.062 10.779C485.06 10.9248 485.044 11.0699 485.012 11.2122C485.505 11.4338 486.019 11.6655 486.462 11.8972C486.81 11.6321 487.234 11.4871 487.671 11.4842C488.205 11.4842 488.717 11.6965 489.095 12.0743C489.473 12.4522 489.685 12.9646 489.685 13.499C489.685 13.499 489.685 13.5493 489.685 13.5796L490.974 14.315C491.284 13.9371 491.72 13.6846 492.202 13.6046C492.684 13.5246 493.179 13.6224 493.594 13.8799C494.009 14.1374 494.317 14.5371 494.459 15.0044C494.602 15.4718 494.569 15.975 494.369 16.4204L495.527 17.1759H495.638C495.822 16.9169 496.065 16.7052 496.347 16.5581C496.629 16.4111 496.941 16.3328 497.259 16.3297C497.614 16.3264 497.962 16.4205 498.266 16.6017C501.973 15.7958 505.931 14.9899 510.101 14.1941C513.935 13.4687 517.561 12.8207 520.979 12.2498C520.878 12.0139 520.823 11.7608 520.817 11.5043C520.817 10.97 521.03 10.4575 521.407 10.0797C521.785 9.70184 522.298 9.48957 522.832 9.48957C523.214 9.49249 523.588 9.60431 523.909 9.81194L524.806 8.91536C524.523 8.63476 524.33 8.27657 524.25 7.88608C524.171 7.49559 524.209 7.09034 524.36 6.72157C524.511 6.35281 524.768 6.03708 525.098 5.81432C525.429 5.59156 525.818 5.47177 526.216 5.4701C526.501 5.46785 526.784 5.52982 527.042 5.65143L527.827 3.9288H444.533V8.66352C444.533 8.66352 446.618 8.56278 449.478 8.66352C449.85 8.39942 450.301 8.26955 450.757 8.29518C451.212 8.3208 451.646 8.50039 451.986 8.80455L453.124 8.89522L453.658 8.57285C453.385 8.22117 453.236 7.789 453.235 7.34384Z" fill="#030202"/>
<path d="M476.058 21.6689C475.564 21.5178 475.051 21.3868 474.507 21.2458C474.284 21.5658 473.972 21.814 473.61 21.9604C473.249 22.1067 472.852 22.1449 472.469 22.0702C472.087 21.9955 471.734 21.8112 471.453 21.5397C471.173 21.2681 470.978 20.9211 470.891 20.5406L468.746 20.2082C468.654 20.4668 468.51 20.7039 468.323 20.9048C468.135 21.1058 467.909 21.2664 467.658 21.3767C467.756 22.3811 467.776 23.3914 467.718 24.3989C469.551 23.7945 472.412 22.9583 476.098 21.9509C476.08 21.8577 476.066 21.7635 476.058 21.6689V21.6689Z" fill="#030202"/>
<path d="M468.766 20.1779L470.911 20.5104C470.842 20.1757 470.86 19.8291 470.961 19.503C471.151 19.0238 471.516 18.6352 471.983 18.4172C472.449 18.1992 472.982 18.1683 473.471 18.3308C473.959 18.4933 474.367 18.837 474.611 19.2911C474.854 19.7452 474.914 20.2752 474.779 20.7723C474.719 20.9451 474.634 21.1081 474.527 21.2558C475.081 21.3969 475.584 21.5278 476.078 21.6789C476.062 21.4229 476.096 21.1662 476.179 20.9234C476.316 20.5275 476.573 20.1842 476.914 19.9412C477.255 19.6982 477.663 19.5676 478.082 19.5676C478.501 19.5676 478.91 19.6982 479.251 19.9412C479.592 20.1842 479.849 20.5275 479.986 20.9234C484.317 19.7851 489.504 18.5057 495.386 17.1961L494.228 16.4405C494.022 16.8421 493.687 17.163 493.278 17.3518C492.868 17.5406 492.407 17.5864 491.968 17.4819C491.529 17.3774 491.138 17.1287 490.858 16.7754C490.577 16.4222 490.423 15.985 490.42 15.5339C490.425 15.1003 490.57 14.6798 490.833 14.3351L489.544 13.5997C489.524 13.9367 489.419 14.2631 489.24 14.5491C489.061 14.8351 488.812 15.0714 488.518 15.2363C488.223 15.4013 487.892 15.4896 487.555 15.4932C487.217 15.4967 486.884 15.4154 486.586 15.2567C486.288 15.098 486.035 14.867 485.85 14.5849C485.665 14.3027 485.553 13.9786 485.526 13.6421C485.498 13.3056 485.556 12.9677 485.693 12.6593C485.83 12.3509 486.043 12.0819 486.311 11.8771C485.838 11.6454 485.354 11.4137 484.861 11.1921C484.751 11.6739 484.468 12.0985 484.066 12.3853C483.663 12.6721 483.17 12.801 482.679 12.7475C482.187 12.6941 481.733 12.4619 481.402 12.0953C481.071 11.7286 480.886 11.253 480.882 10.7589C480.88 10.3677 480.995 9.9848 481.215 9.66083L479.845 9.15714C479.636 9.55409 479.301 9.87004 478.892 10.0549C478.484 10.2398 478.025 10.2831 477.589 10.1778C477.154 10.0726 476.765 9.82487 476.486 9.47393C476.207 9.123 476.052 8.6889 476.048 8.24042C476.042 8.1532 476.042 8.06571 476.048 7.97849L474.628 7.59569C474.429 7.99661 474.102 8.31988 473.699 8.51449C473.296 8.70909 472.84 8.76395 472.402 8.67041C471.965 8.57686 471.571 8.34024 471.282 7.99789C470.994 7.65553 470.828 7.22693 470.81 6.77971C470.287 6.67897 469.743 6.5883 469.199 6.50771C469.18 6.7723 469.11 7.03064 468.992 7.268C468.873 7.50535 468.709 7.71707 468.509 7.89106C468.309 8.06506 468.077 8.19792 467.825 8.28206C467.574 8.3662 467.308 8.39997 467.044 8.38145C466.779 8.36293 466.521 8.29248 466.283 8.17411C466.046 8.05575 465.834 7.8918 465.66 7.69161C465.486 7.49143 465.354 7.25893 465.27 7.0074C465.185 6.75587 465.152 6.49023 465.17 6.22564C465.17 6.1652 465.17 6.11483 465.17 6.05439C464.385 6.05439 463.629 6.00402 462.904 6.05439C462.909 6.11807 462.909 6.18211 462.904 6.24579C462.939 6.78014 462.76 7.30641 462.407 7.70881C462.053 8.11121 461.555 8.35679 461.021 8.39152C460.486 8.42626 459.96 8.2473 459.558 7.89401C459.155 7.54073 458.91 7.04206 458.875 6.50771C458.251 6.64875 457.657 6.79985 457.092 6.98118C457.103 7.09511 457.103 7.20976 457.092 7.32369C457.09 7.74141 456.958 8.14805 456.714 8.48735C456.471 8.82665 456.128 9.08183 455.733 9.21758C459.54 9.86231 463.025 10.8697 464.515 12.8845C465.577 14.2858 466.373 15.8701 466.862 17.5587C467.06 17.5585 467.258 17.5891 467.446 17.6494C467.699 17.7285 467.934 17.8568 468.137 18.0267C468.34 18.1967 468.508 18.4051 468.63 18.64C468.753 18.8748 468.828 19.1316 468.851 19.3955C468.874 19.6594 468.845 19.9253 468.766 20.1779Z" fill="#9A6334"/>
<path d="M453.124 8.85492L454.131 8.95566C453.963 8.83805 453.813 8.69537 453.688 8.53256L453.124 8.85492Z" fill="#9A6334"/>
<path d="M449.478 8.66352C450.264 8.66352 451.11 8.73404 451.986 8.80455C451.646 8.5004 451.213 8.3208 450.757 8.29518C450.301 8.26956 449.85 8.39942 449.478 8.66352V8.66352Z" fill="#FFD437"/>
<path d="M457.264 7.34385C457.274 7.22992 457.274 7.11527 457.264 7.00134C457.215 6.69692 457.098 6.4077 456.92 6.15591C456.742 5.90413 456.509 5.69651 456.238 5.54903C455.968 5.40154 455.667 5.31814 455.359 5.30522C455.051 5.29231 454.744 5.35023 454.462 5.47453C454.18 5.59884 453.93 5.7862 453.732 6.02222C453.534 6.25823 453.392 6.53659 453.319 6.83587C453.245 7.13516 453.241 7.44738 453.307 7.74852C453.372 8.04966 453.506 8.33167 453.698 8.57286C453.824 8.73567 453.973 8.87835 454.142 8.99596C454.746 9.06648 455.34 9.14707 455.944 9.23773C456.332 9.0953 456.666 8.83725 456.902 8.49852C457.138 8.15978 457.264 7.75671 457.264 7.34385Z" fill="#FFD437"/>
<path d="M460.99 4.25117C460.456 4.25117 459.944 4.46344 459.566 4.84128C459.188 5.21913 458.976 5.73159 458.976 6.26594C458.971 6.35317 458.971 6.44064 458.976 6.52786C459.011 7.06221 459.256 7.56088 459.659 7.91416C459.858 8.08909 460.089 8.22306 460.34 8.30843C460.591 8.39379 460.857 8.42887 461.121 8.41167C461.386 8.39448 461.644 8.32533 461.882 8.20819C462.12 8.09105 462.332 7.92821 462.507 7.72896C462.682 7.52971 462.816 7.29796 462.902 7.04693C462.987 6.79591 463.022 6.53053 463.005 6.26594C463.01 6.20226 463.01 6.13822 463.005 6.07454C462.957 5.57402 462.724 5.10945 462.351 4.77207C461.978 4.4347 461.493 4.2489 460.99 4.25117Z" fill="#FFD437"/>
<path d="M467.245 4.25118C466.739 4.24935 466.251 4.43795 465.878 4.7795C465.505 5.12106 465.274 5.59056 465.231 6.09469C465.231 6.15514 465.231 6.20551 465.231 6.26595C465.193 6.8003 465.369 7.32762 465.721 7.73192C466.072 8.13621 466.57 8.38435 467.104 8.42176C467.638 8.45916 468.165 8.28276 468.57 7.93137C468.974 7.57997 469.222 7.08237 469.259 6.54802C469.27 6.45428 469.27 6.35968 469.259 6.26595C469.259 5.7316 469.047 5.21913 468.669 4.84129C468.292 4.46345 467.779 4.25118 467.245 4.25118Z" fill="#FFD437"/>
<path d="M472.845 4.75487C472.311 4.75487 471.798 4.96714 471.421 5.34498C471.043 5.72282 470.831 6.23529 470.831 6.76964V6.84016C470.848 7.28738 471.014 7.71598 471.303 8.05834C471.591 8.4007 471.985 8.63731 472.422 8.73086C472.86 8.8244 473.316 8.76954 473.719 8.57494C474.122 8.38033 474.449 8.05706 474.648 7.65614C474.782 7.38705 474.851 7.09034 474.849 6.78979C474.852 6.52436 474.802 6.26102 474.703 6.01491C474.603 5.76879 474.456 5.54475 474.27 5.35565C474.084 5.16656 473.862 5.01614 473.617 4.91304C473.373 4.80993 473.11 4.75618 472.845 4.75487V4.75487Z" fill="#FFD437"/>
<path d="M478.062 6.26595C477.57 6.26177 477.094 6.43772 476.723 6.76061C476.352 7.08351 476.112 7.53103 476.048 8.0188C476.042 8.10602 476.042 8.1935 476.048 8.28072C476.048 8.6792 476.166 9.06874 476.387 9.40006C476.609 9.73139 476.923 9.98963 477.291 10.1421C477.659 10.2946 478.064 10.3345 478.455 10.2568C478.846 10.179 479.205 9.98715 479.487 9.70538C479.768 9.42361 479.96 9.06461 480.038 8.67378C480.116 8.28295 480.076 7.87785 479.923 7.5097C479.771 7.14155 479.513 6.82688 479.181 6.6055C478.85 6.38411 478.461 6.26595 478.062 6.26595Z" fill="#FFD437"/>
<path d="M482.897 8.7844C482.562 8.78556 482.233 8.86996 481.94 9.03C481.646 9.19004 481.397 9.42069 481.215 9.70113C480.995 10.0251 480.88 10.408 480.882 10.7992C480.886 11.2933 481.071 11.7689 481.402 12.1356C481.733 12.5022 482.188 12.7343 482.679 12.7878C483.17 12.8413 483.663 12.7124 484.066 12.4256C484.468 12.1388 484.751 11.7141 484.861 11.2324C484.892 11.0901 484.909 10.9449 484.911 10.7992C484.911 10.2648 484.699 9.75236 484.321 9.37452C483.943 8.99668 483.431 8.7844 482.897 8.7844Z" fill="#FFD437"/>
<path d="M487.52 11.5044C487.083 11.5073 486.659 11.6522 486.311 11.9174C486.037 12.1206 485.819 12.3901 485.678 12.7006C485.536 13.011 485.476 13.3524 485.502 13.6926C485.529 14.0327 485.641 14.3606 485.829 14.6454C486.017 14.9302 486.274 15.1627 486.576 15.3209C486.879 15.4792 487.216 15.5581 487.557 15.5502C487.898 15.5423 488.232 15.4479 488.526 15.2759C488.821 15.1039 489.067 14.8598 489.242 14.5667C489.416 14.2735 489.513 13.9408 489.524 13.5997C489.524 13.5997 489.524 13.5493 489.524 13.5191C489.524 12.9865 489.313 12.4756 488.938 12.098C488.562 11.7205 488.052 11.507 487.52 11.5044V11.5044Z" fill="#FFD437"/>
<path d="M528.049 7.4748C528.049 7.87172 527.932 8.25989 527.713 8.59061C527.494 8.92132 527.181 9.17984 526.816 9.33372C526.45 9.4876 526.047 9.52999 525.657 9.45556C525.267 9.38113 524.908 9.1932 524.625 8.91536L523.728 9.81194C524.014 9.99279 524.249 10.2426 524.413 10.5384C524.577 10.8341 524.663 11.1663 524.665 11.5043C524.665 11.5043 524.665 11.5749 524.665 11.6152C528.17 11.0409 531.423 10.6078 534.404 10.1444C534.858 9.88115 535.396 9.80526 535.905 9.93282L536.801 9.81194L537.174 9.06647C536.817 8.77681 536.569 8.3736 536.473 7.92383C536.377 7.47407 536.437 7.00484 536.644 6.59413C536.851 6.18341 537.192 5.85593 537.611 5.66611C538.03 5.47629 538.501 5.43556 538.947 5.55069L539.763 3.9288H527.676L526.891 5.65143C527.237 5.81402 527.53 6.07183 527.735 6.39472C527.94 6.71762 528.049 7.09225 528.049 7.4748Z" fill="#9A6334"/>
<path d="M492.415 13.5191C491.88 13.5191 491.368 13.7314 490.99 14.1092C490.612 14.4871 490.4 14.9995 490.4 15.5339C490.403 15.985 490.557 16.4222 490.838 16.7755C491.118 17.1287 491.509 17.3774 491.948 17.4819C492.387 17.5864 492.848 17.5406 493.258 17.3518C493.667 17.163 494.002 16.8421 494.207 16.4405C494.351 16.1598 494.427 15.8493 494.429 15.5339C494.429 14.9995 494.217 14.4871 493.839 14.1092C493.461 13.7314 492.949 13.5191 492.415 13.5191V13.5191Z" fill="#FFD437"/>
<path d="M495.477 17.1759L498.085 16.6017C497.781 16.4205 497.432 16.3264 497.078 16.3297C496.764 16.3359 496.455 16.4157 496.177 16.5627C495.899 16.7096 495.659 16.9196 495.477 17.1759V17.1759Z" fill="#FFD437"/>
<path d="M523.728 9.86231C523.407 9.65468 523.033 9.54286 522.65 9.53994C522.116 9.53994 521.604 9.75221 521.226 10.1301C520.848 10.5079 520.636 11.0204 520.636 11.5547C520.642 11.8112 520.696 12.0642 520.797 12.3002C522.117 12.0685 523.396 11.867 524.655 11.6655C524.655 11.6655 524.655 11.595 524.655 11.5547C524.654 11.2176 524.569 10.886 524.407 10.5903C524.245 10.2947 524.012 10.0443 523.728 9.86231V9.86231Z" fill="#FFD437"/>
<path d="M528.049 7.4748C528.046 7.08896 527.933 6.71201 527.722 6.38878C527.511 6.06555 527.212 5.80962 526.861 5.65143C526.602 5.52983 526.32 5.46785 526.035 5.4701C525.636 5.4701 525.247 5.58827 524.916 5.80965C524.584 6.03104 524.326 6.3457 524.174 6.71386C524.021 7.08201 523.981 7.48711 524.059 7.87794C524.137 8.26877 524.329 8.62776 524.61 8.90954C524.892 9.19131 525.251 9.38319 525.642 9.46093C526.032 9.53867 526.437 9.49878 526.805 9.34628C527.174 9.19379 527.488 8.93555 527.709 8.60422C527.931 8.2729 528.049 7.88336 528.049 7.48487V7.4748Z" fill="#FFD437"/>
<path d="M468.746 20.2082C468.927 19.7059 468.902 19.1521 468.675 18.6685C468.448 18.1849 468.039 17.8111 467.537 17.6293C467.348 17.569 467.151 17.5384 466.953 17.5386C467.205 18.3534 467.4 19.1848 467.537 20.0268C467.608 20.5003 467.668 20.9536 467.708 21.3767C467.95 21.2609 468.167 21.0978 468.345 20.8972C468.523 20.6965 468.659 20.4622 468.746 20.2082V20.2082Z" fill="white"/>
<path d="M473.49 18.2236C472.983 18.0544 472.431 18.093 471.953 18.331C471.475 18.5689 471.111 18.9869 470.941 19.4929C470.839 19.819 470.822 20.1657 470.891 20.5003C470.978 20.8808 471.173 21.2279 471.453 21.4994C471.733 21.7709 472.087 21.9552 472.469 22.0299C472.852 22.1046 473.249 22.0664 473.61 21.9201C473.972 21.7737 474.284 21.5255 474.507 21.2055C474.614 21.0578 474.699 20.8948 474.759 20.7219C474.913 20.2222 474.866 19.6822 474.629 19.216C474.393 18.7498 473.984 18.3939 473.49 18.2236V18.2236Z" fill="white"/>
<path d="M478.697 19.644C478.445 19.5624 478.179 19.5313 477.915 19.5525C477.651 19.5736 477.394 19.6466 477.158 19.7673C476.923 19.8881 476.713 20.0541 476.541 20.2559C476.37 20.4577 476.24 20.6914 476.159 20.9436C476.076 21.1863 476.042 21.4431 476.058 21.6991C476.053 21.7931 476.053 21.8872 476.058 21.9812C477.256 21.6588 478.556 21.3062 479.925 20.9738C479.839 20.6716 479.682 20.394 479.469 20.1631C479.256 19.9322 478.991 19.7544 478.697 19.644V19.644Z" fill="white"/>
<path d="M534.394 10.1444L535.895 9.93283C535.386 9.80526 534.848 9.88116 534.394 10.1444V10.1444Z" fill="white"/>
<path d="M540.296 8.11954C540.467 7.61585 540.431 7.0653 540.197 6.58789C539.963 6.11048 539.55 5.74491 539.047 5.57085H538.957C538.511 5.45572 538.04 5.49645 537.621 5.68627C537.202 5.87608 536.861 6.20356 536.654 6.61428C536.447 7.025 536.387 7.49423 536.483 7.94399C536.579 8.39375 536.827 8.79697 537.184 9.08663C537.364 9.22525 537.564 9.3341 537.778 9.40899C538.283 9.5681 538.831 9.52202 539.302 9.28072C539.773 9.03941 540.13 8.62228 540.296 8.11954V8.11954Z" fill="white"/>
<path d="M555.485 6.03424L554.478 7.04163C554.703 7.25763 554.876 7.52319 554.981 7.81731L556.714 7.7065V6.89052C556.209 6.77364 555.769 6.467 555.485 6.03424V6.03424Z" fill="#9A6334"/>
<path d="M554.508 7.08193C554.332 6.92547 554.131 6.7995 553.914 6.7092V6.7092L553.612 6.61853H553.551C553.427 6.60816 553.302 6.60816 553.178 6.61853C552.707 6.60903 552.248 6.76511 551.879 7.05962C551.511 7.35413 551.258 7.76841 551.164 8.23035L554.991 7.91806C554.9 7.60427 554.734 7.31731 554.508 7.08193V7.08193Z" fill="#FFD437"/>
<path d="M555.162 4.96641C555.163 5.14736 555.19 5.32724 555.243 5.50032C555.238 5.5202 555.238 5.54089 555.243 5.56077C555.294 5.72827 555.369 5.88768 555.465 6.03424V6.03424C555.605 6.25922 555.789 6.45424 556.005 6.6081C556.221 6.76195 556.465 6.87162 556.724 6.93081V3.01208C556.281 3.11424 555.886 3.36284 555.603 3.71757C555.32 4.0723 555.164 4.51236 555.162 4.96641Z" fill="#FFD437"/>
<path d="M554.891 38.2303V30.5037C554.891 30.5037 573.332 25.4667 606.972 20.0369C640.612 14.6071 661.794 11.3129 661.794 11.3129C661.794 11.3129 582.548 3.33445 501.056 21.276C419.565 39.2175 353.775 53.9354 246.308 122.478C198.174 153.183 149.427 203.734 149.427 203.734C149.427 203.734 199.514 170.087 217.21 160.416C234.907 150.745 255.343 139.724 255.343 139.724C255.343 139.724 280.754 178.448 327.115 188.583C362.517 196.319 404.618 184.845 406.36 183.344C408.103 181.843 411.215 174.278 412.343 167.891C413.779 159.327 414.453 150.654 414.357 141.971H409.372C409.372 141.971 406.35 158.673 396.409 166.4C386.468 174.127 368.994 176.867 347.813 175.366C326.631 173.865 306.447 155.218 302.207 150.181C297.967 145.144 286.011 124.513 286.011 124.513C286.011 124.513 324.869 104.033 379.912 81.3867C434.954 58.7407 466.641 52.7266 466.641 52.7266L465.18 168.697C465.18 168.697 465.815 175.043 460.94 179.133C456.065 183.223 445.701 182.337 445.701 182.337V187.374H526.961C544.355 187.303 556.774 186.316 557.761 185.691C559.453 184.614 563.089 178.469 564.872 173.079C567.185 165.854 568.85 158.437 569.847 150.917L565.537 150.282C565.537 150.282 560.863 164.385 551.275 169.775C547.79 171.79 543.026 173.724 538.645 173.653H511.027C511.027 173.653 505.206 173.653 500.653 167.609C496.333 161.927 496.625 150.967 496.625 150.967V94.3115H532.702C532.702 94.3115 541.354 93.8985 544.426 100.537C546.531 105.091 547.911 116.746 547.911 116.746H551.647L553.662 75.3626H550.922C550.922 75.3626 550.177 78.6063 543.942 81.1047C537.708 83.603 528.24 83.1194 528.24 83.1194H496.574V43.2169C496.574 43.2169 515.509 38.1799 527.968 35.4902C540.427 32.8005 549.653 30.5037 549.653 30.5037V38.2303H554.891Z" fill="#231F20"/>
</g>
<path d="M192.184 356.771H194.296V343.091L205.096 324.755H202.696L193.288 340.931L184.072 324.755H181.672L192.184 343.091V356.771Z" fill="black"/>
<path d="M214.386 336.755C208.578 336.755 204.114 341.219 204.114 347.027C204.114 352.835 208.578 357.299 214.386 357.299C220.194 357.299 224.658 352.835 224.658 347.027C224.658 341.219 220.194 336.755 214.386 336.755ZM214.386 355.475C209.682 355.475 206.13 351.779 206.13 347.027C206.13 342.275 209.682 338.579 214.386 338.579C219.09 338.579 222.642 342.275 222.642 347.027C222.642 351.779 219.09 355.475 214.386 355.475Z" fill="black"/>
<path d="M230.3 337.187V349.523C230.3 351.107 230.444 353.171 231.788 354.899C233.276 356.819 235.628 357.299 237.356 357.299C239.084 357.299 241.436 356.819 242.924 354.899C244.268 353.171 244.412 351.107 244.412 349.523V337.187H242.492V348.995C242.492 350.387 242.444 352.451 241.244 353.891C240.044 355.331 238.268 355.475 237.356 355.475C236.444 355.475 234.668 355.331 233.468 353.891C232.268 352.451 232.22 350.387 232.22 348.995V337.187H230.3Z" fill="black"/>
<path d="M251.347 356.771H253.267V346.259C253.267 343.811 253.315 338.579 257.251 338.579C258.115 338.579 258.499 338.819 258.691 338.963L259.651 337.235C258.931 336.851 258.115 336.755 257.587 336.755C255.475 336.755 253.987 338.051 253.267 339.731V337.187H251.347V356.771Z" fill="black"/>
<path d="M282.122 341.555C287.642 341.555 291.435 338.435 291.435 333.107C291.435 327.635 287.307 324.755 282.075 324.755H275.882V356.771H277.994V341.555H282.122ZM277.994 326.675H281.882C286.538 326.675 289.227 329.171 289.227 333.155C289.227 337.187 286.394 339.635 282.218 339.635H277.994V326.675Z" fill="black"/>
<path d="M310.361 340.595C308.489 337.955 305.801 336.755 302.729 336.755C297.017 336.755 293.177 340.931 293.177 346.979C293.177 353.411 297.593 357.299 302.729 357.299C305.273 357.299 308.393 356.291 310.361 353.267V356.771H312.281V337.187H310.361V340.595ZM302.825 338.579C306.185 338.579 310.457 341.027 310.457 346.835C310.457 351.347 307.769 355.475 302.873 355.475C297.929 355.475 295.193 351.251 295.193 346.835C295.193 341.507 298.937 338.579 302.825 338.579Z" fill="black"/>
<path d="M319.175 356.771H321.095V346.259C321.095 343.811 321.143 338.579 325.079 338.579C325.943 338.579 326.327 338.819 326.519 338.963L327.479 337.235C326.759 336.851 325.943 336.755 325.415 336.755C323.303 336.755 321.815 338.051 321.095 339.731V337.187H319.175V356.771Z" fill="black"/>
<path d="M337.115 339.011V337.187H333.708V330.179H331.787V337.187H329.628V339.011H331.787V356.771H333.708V339.011H337.115Z" fill="black"/>
<path d="M340.972 356.771H342.892V346.595C342.892 344.675 343.084 342.851 343.948 341.315C344.668 340.019 346.06 338.579 348.748 338.579C351.1 338.579 352.156 339.779 352.588 340.499C353.308 341.603 353.356 343.091 353.356 344.435V356.771H355.276V344.435C355.276 342.707 355.18 340.883 354.316 339.491C353.884 338.819 352.396 336.755 348.892 336.755C345.58 336.755 343.804 338.627 342.892 340.259V337.187H340.972V356.771Z" fill="black"/>
<path d="M379.726 347.219C379.726 340.979 375.742 336.755 370.462 336.755C365.662 336.755 360.958 340.259 360.958 347.075C360.958 352.787 364.51 357.299 370.606 357.299C375.454 357.299 378.046 354.179 379.198 351.971L377.566 351.011C376.318 353.603 373.918 355.475 370.75 355.475C366.622 355.475 362.974 352.211 362.974 347.219H379.726ZM363.118 345.395C363.646 341.603 366.478 338.579 370.462 338.579C374.35 338.579 377.23 341.507 377.71 345.395H363.118Z" fill="black"/>
<path d="M385.409 356.771H387.329V346.259C387.329 343.811 387.377 338.579 391.313 338.579C392.177 338.579 392.561 338.819 392.753 338.963L393.713 337.235C392.993 336.851 392.177 336.755 391.649 336.755C389.537 336.755 388.049 338.051 387.329 339.731V337.187H385.409V356.771Z" fill="black"/>
<path d="M414.553 339.011V337.187H411.145V330.179H409.225V337.187H407.065V339.011H409.225V356.771H411.145V339.011H414.553Z" fill="black"/>
<path d="M427.433 336.755C421.625 336.755 417.161 341.219 417.161 347.027C417.161 352.835 421.625 357.299 427.433 357.299C433.241 357.299 437.705 352.835 437.705 347.027C437.705 341.219 433.241 336.755 427.433 336.755ZM427.433 355.475C422.729 355.475 419.177 351.779 419.177 347.027C419.177 342.275 422.729 338.579 427.433 338.579C432.137 338.579 435.689 342.275 435.689 347.027C435.689 351.779 432.137 355.475 427.433 355.475Z" fill="black"/>
<path d="M457.526 356.771V329.459L484.406 357.587V324.755H482.294V352.547L455.414 324.419V356.771H457.526Z" fill="black"/>
<path d="M509.71 347.219C509.71 340.979 505.726 336.755 500.446 336.755C495.646 336.755 490.942 340.259 490.942 347.075C490.942 352.787 494.494 357.299 500.59 357.299C505.438 357.299 508.03 354.179 509.182 351.971L507.55 351.011C506.302 353.603 503.902 355.475 500.734 355.475C496.606 355.475 492.958 352.211 492.958 347.219H509.71ZM493.102 345.395C493.63 341.603 496.462 338.579 500.446 338.579C504.334 338.579 507.214 341.507 507.694 345.395H493.102Z" fill="black"/>
<path d="M520.866 339.011V337.187H517.457V330.179H515.538V337.187H513.378V339.011H515.538V356.771H517.457V339.011H520.866Z" fill="black"/>
<path d="M523.666 347.939H533.266V345.731H523.666V347.939Z" fill="black"/>
<path d="M560.472 324.755H539.304V326.675H556.92L537.432 356.771H559.944V354.851H540.984L560.472 324.755Z" fill="black"/>
<path d="M580.257 347.219C580.257 340.979 576.273 336.755 570.993 336.755C566.193 336.755 561.489 340.259 561.489 347.075C561.489 352.787 565.041 357.299 571.137 357.299C575.985 357.299 578.577 354.179 579.729 351.971L578.097 351.011C576.849 353.603 574.449 355.475 571.281 355.475C567.153 355.475 563.505 352.211 563.505 347.219H580.257ZM563.649 345.395C564.177 341.603 567.009 338.579 570.993 338.579C574.881 338.579 577.761 341.507 578.241 345.395H563.649Z" fill="black"/>
<path d="M585.94 356.771H587.86V346.259C587.86 343.811 587.908 338.579 591.844 338.579C592.708 338.579 593.092 338.819 593.284 338.963L594.244 337.235C593.524 336.851 592.708 336.755 592.18 336.755C590.068 336.755 588.58 338.051 587.86 339.731V337.187H585.94V356.771Z" fill="black"/>
<path d="M606.402 336.755C600.594 336.755 596.13 341.219 596.13 347.027C596.13 352.835 600.594 357.299 606.402 357.299C612.21 357.299 616.674 352.835 616.674 347.027C616.674 341.219 612.21 336.755 606.402 336.755ZM606.402 355.475C601.698 355.475 598.146 351.779 598.146 347.027C598.146 342.275 601.698 338.579 606.402 338.579C611.106 338.579 614.658 342.275 614.658 347.027C614.658 351.779 611.106 355.475 606.402 355.475Z" fill="black"/>
<defs>
<clipPath id="clip0_128_1236">
<rect width="800" height="294.771" fill="white"/>
</clipPath>
</defs>
</svg>
